<?xml version="1.0" encoding="utf-8"?>
<!-- Generator: Adobe Illustrator 16.0.0, SVG Export Plug-In . SVG Version: 6.00 Build 0)  -->
<!DOCTYPE svg PUBLIC "-//W3C//DTD SVG 1.1//EN" "http://www.w3.org/Graphics/SVG/1.1/DTD/svg11.dtd">
<svg version="1.1" id="Layer_1" xmlns="http://www.w3.org/2000/svg" xmlns:xlink="http://www.w3.org/1999/xlink" x="0px" y="0px"
	 width="309.689px" height="73.086px" viewBox="0 0 309.689 73.086" enable-background="new 0 0 309.689 73.086"
	 xml:space="preserve">
<text transform="matrix(1 0 0 1 90.3113 62.1665)" fill="#FFFFFF" font-family="'Montserrat-Regular'" font-size="72">LORIS</text>
<g>
	<g id="Layer_1_14_">
		<g>
			<g>
				<g>
					<path fill="#6FC7B3" d="M42.091,0C20.458,0,2.92,4.911,2.92,10.971v9.002c0,6.062,17.538,10.97,39.171,10.97
						s39.171-4.91,39.171-10.97v-9.002C81.261,4.911,63.723,0,42.091,0z"/>
				</g>
			</g>
			<g>
				<g>
					<path fill="#36C1CE" d="M42.091,36.189c-20.653,0-37.683-4.479-39.171-10.159c-0.07,0.271,0,14.866,0,14.866
						c0,6.062,17.538,10.972,39.171,10.972s39.171-4.912,39.171-10.972c0,0,0.044-14.596-0.026-14.866
						C79.744,31.71,62.744,36.189,42.091,36.189z"/>
				</g>
			</g>
			<path fill="#2C3689" d="M81.224,47.209c-1.488,5.678-18.479,10.16-39.134,10.16c-20.653,0-37.687-4.482-39.175-10.16L2.92,62.077
				c0,6.062,17.538,10.971,39.171,10.971s39.171-4.912,39.171-10.971L81.224,47.209z"/>
		</g>
	</g>
</g>
</svg>
