<?xml version="1.0" encoding="utf-8"?>
<!-- Generator: Adobe Illustrator 16.0.0, SVG Export Plug-In . SVG Version: 6.00 Build 0)  -->
<!DOCTYPE svg PUBLIC "-//W3C//DTD SVG 1.1//EN" "http://www.w3.org/Graphics/SVG/1.1/DTD/svg11.dtd">
<svg version="1.1" id="Layer_1" xmlns="http://www.w3.org/2000/svg" xmlns:xlink="http://www.w3.org/1999/xlink" x="0px" y="0px"
	 width="300px" height="300px" viewBox="0 0 300 300" enable-background="new 0 0 300 300" xml:space="preserve">
<g>
	<g id="XMLID_3_">
		<g>
			<path fill="#D6D5D5" d="M288.516,37.906v57.999H11.151V37.906c0-2.396,1.877-4.343,4.175-4.343h269.026
				C286.639,33.563,288.516,35.509,288.516,37.906z M142.772,63.727c0-8.854-6.893-16.044-15.394-16.044
				c-8.49,0-15.373,7.189-15.373,16.044s6.883,16.044,15.373,16.044C135.879,79.771,142.772,72.582,142.772,63.727z M101.585,63.727
				c0-8.854-6.883-16.044-15.373-16.044c-8.501,0-15.395,7.189-15.395,16.044s6.894,16.044,15.395,16.044
				C94.702,79.771,101.585,72.582,101.585,63.727z M60.418,63.727c0-8.854-6.893-16.044-15.394-16.044
				c-8.49,0-15.373,7.189-15.373,16.044s6.882,16.044,15.373,16.044C53.525,79.771,60.418,72.582,60.418,63.727z"/>
			<path fill="#70C8B4" d="M127.378,47.683c8.501,0,15.394,7.189,15.394,16.044s-6.893,16.044-15.394,16.044
				c-8.49,0-15.373-7.189-15.373-16.044S118.889,47.683,127.378,47.683z"/>
			<path fill="#3EC1CD" d="M86.212,47.683c8.49,0,15.373,7.189,15.373,16.044s-6.883,16.044-15.373,16.044
				c-8.501,0-15.395-7.189-15.395-16.044S77.711,47.683,86.212,47.683z"/>
			<path fill="#2B3987" d="M45.024,47.683c8.501,0,15.394,7.189,15.394,16.044s-6.893,16.044-15.394,16.044
				c-8.49,0-15.373-7.189-15.373-16.044S36.534,47.683,45.024,47.683z"/>
			<path fill="#7D7E7E" d="M284.352,266.842c2.287,0,4.175-1.946,4.175-4.354V102.385H11.151v160.102
				c0,2.408,1.877,4.354,4.175,4.354H284.352z M299.605,263.624c-0.355,8.506-7.098,14.964-15.62,14.648H14.97
				c-11.176,0.191-13.873-3.477-14.542-15.402V38.288c-0.54-14.097,5.038-16.719,14.898-16.539h269.026
				c12.579-0.506,15.352,4.973,15.254,17.281V263.624z M288.516,95.905V37.906c0-2.396-1.877-4.343-4.164-4.343H15.326
				c-2.298,0-4.175,1.946-4.175,4.343v57.999H288.516z"/>
		</g>
		<g>
		</g>
	</g>
</g>
<g>
	<g>
		<g>
			<path fill="#2C3888" d="M84.646,225.998c-5.025,5.025-5.025,13.166,0,18.191c2.514,2.514,5.806,3.766,9.1,3.766
				c3.294,0,6.587-1.252,9.1-3.766l42.239-42.248l-18.198-18.183L84.646,225.998z"/>
			<polygon fill="#2C3888" points="190.217,147.711 208.613,138.201 218.244,119.581 209.265,110.601 190.654,120.24 
				181.125,138.621 158.749,161.023 167.821,170.112 			"/>
			<path fill="#70C7B3" d="M194.246,196.539l-1.73-0.172c-3.14,0-6.116,0.645-8.896,1.671l-52.805-52.813
				c1.031-2.779,1.672-5.755,1.672-8.894l-0.172-1.731c-0.909-13.39-11.938-23.999-25.559-23.999c-3.96,0-7.675,0.97-11.029,2.572
				l17.092,17.094c0.902,0.899,1.52,1.966,1.932,3.088c1.123,3.034,0.513,6.586-1.932,9.04c-1.672,1.671-3.867,2.512-6.063,2.512
				c-1.011,0-2.014-0.224-2.976-0.584c-1.124-0.427-2.187-1.029-3.087-1.938l-17.093-17.085c-1.603,3.354-2.572,7.066-2.572,11.03
				c0,13.62,10.609,24.648,23.997,25.559l1.731,0.171c3.139,0,6.114-0.643,8.896-1.664l52.798,52.807
				c-1.015,2.779-1.657,5.754-1.657,8.895l0.18,1.731c0.893,13.396,11.932,23.998,25.551,23.998c3.962,0,7.684-0.954,11.027-2.572
				L186.46,228.16c-0.894-0.892-1.52-1.964-1.946-3.078c-1.126-3.036-0.517-6.597,1.946-9.049c1.653-1.674,3.868-2.514,6.063-2.514
				c1.012,0,2.008,0.215,2.984,0.582c1.122,0.422,2.195,1.022,3.079,1.932l17.093,17.093c1.611-3.362,2.572-7.066,2.572-11.028
				C218.244,208.477,207.635,197.446,194.246,196.539z"/>
		</g>
	</g>
</g>
</svg>
