<?xml version="1.0" encoding="utf-8"?>
<!-- Generator: Adobe Illustrator 16.0.0, SVG Export Plug-In . SVG Version: 6.00 Build 0)  -->
<!DOCTYPE svg PUBLIC "-//W3C//DTD SVG 1.1//EN" "http://www.w3.org/Graphics/SVG/1.1/DTD/svg11.dtd">
<svg version="1.1" id="Layer_1" xmlns="http://www.w3.org/2000/svg" xmlns:xlink="http://www.w3.org/1999/xlink" x="0px" y="0px"
	 width="300px" height="300px" viewBox="0 0 300 300" enable-background="new 0 0 300 300" xml:space="preserve">
<g>
	<g id="XMLID_2_">
		<g>
			<path fill="#2C3888" d="M299.308,143.411V285H144.189V143.411H299.308z M292.9,278.599V149.812H150.597v128.786h142.296H292.9z"
				/>
			<path fill="#70C7B3" d="M271.75,213.271c7.146,0,12.948,5.795,12.948,12.942c0,7.146-5.802,12.947-12.948,12.947
				c-7.147,0-12.948-5.801-12.948-12.947c0-2.345,0.632-4.531,1.712-6.427l-21.226-13.283c-1.675,1.649-3.969,2.673-6.496,2.673
				c-2.288,0-4.354-0.866-5.972-2.243l-20.766,15.179c0.701,1.473,1.118,3.109,1.118,4.854c0,6.287-5.093,11.381-11.381,11.381
				c-6.294,0-11.381-5.094-11.381-11.381c0-3.255,1.384-6.181,3.577-8.253l-15.817-24.766c-1.068,0.392-2.212,0.645-3.412,0.645
				c-5.498,0-9.966-4.461-9.966-9.972c0-5.498,4.462-9.953,9.966-9.953c5.497,0,9.959,4.455,9.959,9.953
				c0,2.762-1.118,5.251-2.926,7.059l15.798,24.721c1.302-0.518,2.711-0.821,4.202-0.821c3.002,0,5.713,1.182,7.741,3.084
				l20.733-15.153c-0.468-1.1-0.727-2.307-0.727-3.583c0-5.106,4.146-9.252,9.252-9.252c5.105,0,9.251,4.146,9.251,9.252
				c0,1.042-0.209,2.016-0.519,2.95l21.726,13.587C265.531,214.478,268.495,213.271,271.75,213.271z"/>
			<rect x="203.805" y="72.086" fill="#D6D5D5" width="69.607" height="33.169"/>
			<path fill="#D6D5D5" d="M273.412,32.635v30.408h-69.607V31.125h68.097C272.729,31.125,273.412,31.801,273.412,32.635z"/>
			<rect x="126.9" y="72.086" fill="#D6D5D5" width="67.856" height="33.169"/>
			<rect x="126.9" y="31.125" fill="#D6D5D5" width="67.856" height="31.918"/>
			<rect x="50.759" y="157.275" fill="#D6D5D5" width="67.098" height="31.362"/>
			<rect x="50.759" y="236.431" fill="#D6D5D5" width="67.098" height="28.646"/>
			<rect x="50.759" y="114.305" fill="#D6D5D5" width="67.098" height="33.922"/>
			<rect x="50.759" y="72.086" fill="#D6D5D5" width="67.098" height="33.169"/>
			<rect x="50.759" y="31.118" fill="#D6D5D5" width="67.098" height="31.918"/>
			<rect x="50.759" y="197.681" fill="#D6D5D5" width="67.098" height="29.701"/>
			<rect x="9.046" y="197.681" fill="#D6D5D5" width="32.67" height="29.701"/>
			<rect x="9.046" y="157.275" fill="#D6D5D5" width="32.67" height="31.362"/>
			<rect x="9.046" y="114.305" fill="#D6D5D5" width="32.67" height="33.922"/>
			<rect x="9.046" y="72.086" fill="#D6D5D5" width="32.67" height="33.169"/>
			<path fill="#D6D5D5" d="M9.046,236.431h32.67v28.646H9.772c-0.423-0.26-0.727-0.715-0.727-1.258V236.431z"/>
			<path fill="#7D7D7D" d="M0.003,263.831V32.635c0-5.82,4.733-10.553,10.553-10.553h261.352c5.813,0,10.547,4.733,10.547,10.553
				v97.677h-9.043v-16.007h-69.607v16.007h-9.049v-16.007H126.9v33.922h3.703v9.043H126.9v31.362h3.703v9.049H126.9v29.701h3.703
				v9.049H126.9v28.646h3.703v9.302H10.556c-0.771,0-1.517-0.095-2.244-0.253H4.527v-1.662
				C1.797,270.548,0.003,267.401,0.003,263.831z M9.046,236.431v27.388c0,0.543,0.303,0.998,0.727,1.258h31.944v-28.646H9.046z
				 M50.759,114.305v33.922h67.098v-33.922H50.759z M41.716,188.638v-31.362H9.046v31.362H41.716z M50.759,31.118v31.918h67.098
				V31.118H50.759z M117.857,72.086H50.759v33.169h67.098V72.086z M41.716,148.227v-33.922H9.046v33.922H41.716z M41.716,105.255
				V72.086H9.046v33.169H41.716z M117.857,236.431H50.759v28.646h67.098V236.431z M9.046,227.382h32.67v-29.701H9.046V227.382z
				 M117.857,157.275H50.759v31.362h67.098V157.275z M117.857,197.681H50.759v29.701h67.098V197.681z M273.412,105.255V72.086
				h-69.607v33.169H273.412z M273.412,63.043V32.635c0-0.834-0.683-1.51-1.511-1.51h-68.097v31.918H273.412z M194.756,105.255
				V72.086H126.9v33.169H194.756z M194.756,63.043V31.125H126.9v31.918H194.756z"/>
		</g>
		<g>
		</g>
	</g>
</g>
</svg>
