<?xml version="1.0" encoding="utf-8"?>
<!-- Generator: Adobe Illustrator 16.0.0, SVG Export Plug-In . SVG Version: 6.00 Build 0)  -->
<!DOCTYPE svg PUBLIC "-//W3C//DTD SVG 1.1//EN" "http://www.w3.org/Graphics/SVG/1.1/DTD/svg11.dtd">
<svg version="1.1" id="Capa_1" xmlns="http://www.w3.org/2000/svg" xmlns:xlink="http://www.w3.org/1999/xlink" x="0px" y="0px"
	 width="390px" height="390px" viewBox="0 0 390 390" enable-background="new 0 0 390 390" xml:space="preserve">
<g>
	<g>
		<path fill="#D5D5D5" d="M305,295v-60h20.959c-1.496-1.744-2.904-3.543-4.189-5.391c-1.051-1.51-2.043-3.049-2.992-4.609H305
			v-33.537c-3.99-14.396-6.605-29.373-10-43.748V155h-45.407c-0.93,3.324-1.827,6.658-2.692,10H295v60h-60v-11.652
			c-0.551,2.162-1.092,4.327-1.664,6.483c-2.384,8.976-4.922,18.073-8.336,26.782V295h-60v-45.98
			c-1.675-4.399-3.006-8.889-4.123-13.09c-2.137-8.041-3.828-16.193-5.877-24.255V225h-29.104c-0.771,3.336-1.55,6.672-2.354,10
			H151.5h3.5v60h-54.821c-4.138,5.713-9.106,10.605-15.179,13.84V360c3.884,0,6.194,0,10,0v-55h60l-0.042,55.168
			c3.493,0,6.622-0.168,10.042-0.168v-55h60v55c3.462,0,6.655,0,10,0v-55h60v55c3.582,0,6.418,0,10,0v-55h55
			c0-3.333,0.001-6.667,0.001-10H305z M295,295h-60v-60h60V295z"/>
		<path fill="#D5D5D5" d="M235,85V30c-3.189,0-6.811,0-10,0v55h-60V30c-3.333,0-6.667,0-10,0v55H95V30c-3.582,0-6.418,0-10,0v55H30
			c0,3.333,0,6.667,0,10h55v60H30c0,3.333,0,6.667,0,10h55v60H30c0,3.582-0.002,6.418-0.002,10H85v24.34
			c0.139-0.365,0.284-0.729,0.419-1.095c1.61-4.392,3.084-8.83,4.412-13.313c2.013-6.793,3.611-13.713,5.169-20.642V165h24.635
			c0.448-0.39,0.898-0.777,1.366-1.144c10.651-8.332,25.202-10.64,36.802-2.29c2.563,1.845,4.965,3.851,7.197,6.006V165h50.752
			c0.822-3.341,1.669-6.676,2.545-10H165V95h60v37.296c1.785-5.325,3.73-10.593,5.889-15.778c1.297-3.115,2.65-6.18,4.111-9.162V95
			h7.234c2.564-3.609,5.482-6.97,8.883-10H235z M154.95,155H95V95h59.967L154.95,155z"/>
		<path fill="#706C70" d="M371.392,19.703L17.979,17.704l0.474,354.046H372L371.392,19.703z M360.001,295L360,305v55h-55h-10h-60
			h-10h-60h-10H95H85H30v-45.66V305v-10v-19.936c0.165,0.324,0.168-27.697-0.002-27.963V235L30,225v-60v-10V95V85V30h55h10h60h10h60
			h10h60h10h55v55v10v60v10v68.129c-0.17-0.048-0.166,13.439,0.001,13.482V295z"/>
		<path fill="#6FC7B3" d="M65.203,305.378c2.031,0,4.17-0.198,6.419-0.622c28.461-4.609,39.704-53.911,47.145-86.548
			c1.149-5.04,2.142-9.394,3.023-12.697c3.854-14.647,12.603-26.256,20.35-27c6.556-0.621,11.587,7.697,14.022,12.754
			c3.605,7.367,6.226,18.215,8.76,28.708c5.229,21.647,10.168,42.094,25.107,47.074c4.069,1.293,8.202,0.859,11.952-1.252
			c12.971-7.312,19.85-33.568,29.998-75.803c9.654-40.177,22.862-95.184,42.92-92.224c18.578,3.584,24.973,32.321,31.737,62.742
			c8.077,36.312,17.229,77.457,51.603,85.607c0.42,0.134,1.342,0.383,1.763,0.494c0-4.29-0.001-9.151-0.001-13.482
			c-25.048-7.407-33.244-42.039-40.674-75.438c-7.736-34.783-15.044-67.638-42.135-72.717l-0.193-0.033
			c-22.298-3.495-33.816,23.947-37.604,32.961c-8.097,19.28-14.178,44.584-20.059,69.056c-6.704,27.896-15.047,62.612-23.742,67.517
			c-0.613,0.346-0.993,0.39-1.54,0.215c-8.021-2.674-12.721-22.131-16.497-37.767c-2.698-11.172-5.489-22.726-9.702-31.334
			c-9.053-18.799-20.785-20.611-26.959-20.017c-13.525,1.3-26.257,16.021-31.674,36.612c-0.938,3.514-1.954,7.973-3.131,13.137
			c-5.438,23.851-16.754,73.479-36.601,76.611l-0.203,0.036c-14.102,2.681-21.001-9.069-30.665-28.763
			c-2.654-5.408-5.743-11.463-8.624-16.104c0,9.133,0.002,19.231,0.002,28.367C37.496,290.03,47.716,305.379,65.203,305.378z"/>
		<path fill="#D5D5D5" d="M31.96,295H30c0,3.582,0,6.418,0,10h11.174C37.691,302.117,34.629,298.648,31.96,295z"/>
		<path fill="#D5D5D5" d="M306.295,95H360c0-3.493,0-6.581,0-10h-55V30c-3.333,0-6.667,0-10,0v53.54
			C299.438,86.75,303.145,90.657,306.295,95z"/>
		<path fill="#D5D5D5" d="M329.671,165H360c0-3.68,0-6.46,0-10h-32.566C328.169,158.338,328.91,161.673,329.671,165z"/>
		<path fill="#D5D5D5" d="M191.859,235h5.514c0.332-0.912,0.668-1.822,0.982-2.741c0.819-2.405,1.594-4.827,2.334-7.259h-11.66
			c0.53,2.084,1.081,4.162,1.683,6.227C191.082,232.489,191.463,233.747,191.859,235z"/>
	</g>
</g>
<line fill="#706C70" x1="295" y1="360" x2="305" y2="360"/>
</svg>
