<?xml version="1.0" encoding="utf-8"?>
<!-- Generator: Adobe Illustrator 16.0.0, SVG Export Plug-In . SVG Version: 6.00 Build 0)  -->
<!DOCTYPE svg PUBLIC "-//W3C//DTD SVG 1.1//EN" "http://www.w3.org/Graphics/SVG/1.1/DTD/svg11.dtd">
<svg version="1.1" id="Layer_1" xmlns="http://www.w3.org/2000/svg" xmlns:xlink="http://www.w3.org/1999/xlink" x="0px" y="0px"
	 width="300px" height="300px" viewBox="0 0 300 300" enable-background="new 0 0 300 300" xml:space="preserve">
<g id="layer1_1_">
	<g id="XMLID_4_">
		<g>
			<path fill="#2C3888" d="M286.319,182.293c-0.647,1.222-1.953,4.813-2.902,7.966l-1.733,5.742l1.18-6.744
				c0.679-3.706,1.974-7.287,2.913-7.966C287.165,180.299,287.27,180.487,286.319,182.293z"/>
			<path fill="#70C7B3" d="M228.595,80.083c-1.273-1.628-23.312-6.024-22.122-4.406c0.376,0.501,5.282,1.921,10.92,3.153
				c5.628,1.221,10.732,2.359,11.328,2.526C229.326,81.524,229.273,80.96,228.595,80.083z M274.877,141.785
				c-0.805-6.661-23.898-28.136-33.242-30.882c-2.609-0.773-5.199-2.516-6.19-4.166c-3.143-5.241-9.209-8.102-22.238-10.471
				c-11.609-2.13-12.569-2.506-18.896-7.632l-6.671-5.408l6.013-5.961c3.31-3.278,7.36-7.339,9-9.01
				c3.435-3.477,9.511-5.502,14.605-4.854c2.506,0.313,5.137,2.328,9.386,7.089c5.857,6.598,9.031,8.645,17.216,11.108
				c3.979,1.19,9.563,7.413,9.198,10.242c-0.062,0.605-2.506,0.783-5.408,0.417c-8.289-1.054-6.41,1.253,2.35,2.871
				c8.884,1.629,13.833,5.168,16.171,11.589l1.379,3.769l-3.508-1.148c-8.896-2.934-10.952-3.382-9.354-2.088
				c0.887,0.72,3.946,1.984,6.775,2.809c10.993,3.184,17.278,10.69,18.678,22.353c0.396,3.163,1.169,6.149,1.754,6.619
				c0.647,0.533,0.877-0.156,0.595-1.743c-0.449-2.401-0.281-2.475,2.297-0.877c1.535,0.95,3.352,3.456,4.04,5.585
				c5.94,18.364,8.175,26.319,8.384,29.713c0.125,2.192-0.292,4.218-0.96,4.521c-1.306,0.595-3.278-5.575-4.386-13.614
				c-0.782-5.825-9.792-17.185-14.042-17.717C276.088,144.677,275.116,143.644,274.877,141.785z"/>
			<path fill="#2C3888" d="M282.529,204.604c-2.203,0.805-5.606,2.788-7.559,4.417c-1.942,1.618-4.511,2.787-5.7,2.6
				c-1.827-0.293-1.733-0.46,0.563-1.065c4.009-1.055,7.204-5.387,6.933-9.396c-0.23-3.246-0.178-3.277,0.804-0.626
				c1.284,3.497,4.051,3.936,7.799,1.242c2.475-1.785,3.027-3.31,4.04-11.4c1.002-7.914,0.856-9.751-0.971-12.101
				c-2.099-2.693-3.978-3.038-9.782-1.764c-2.392,0.521-2.412,0.511,0.083-1.034c3.445-2.161,8.666-1.263,11.13,1.9
				c1.712,2.213,1.848,4.207,0.845,12.1C289.347,200.292,288.114,202.558,282.529,204.604z"/>
			<path fill="#2C3888" d="M259.645,136.638c-0.501,1.253-1.117,2.245-1.357,2.213c-0.251-0.031-0.323-1.107-0.156-2.401
				c0.156-1.294,0.772-2.286,1.367-2.213C260.083,134.32,260.146,135.396,259.645,136.638z"/>
			<path fill="#2C3888" d="M257.473,217.57c0.303,0.146-1.816,0.126-3.853,0.084C255.447,217.561,257.118,217.403,257.473,217.57z"
				/>
			<path fill="#2C3888" d="M253.275,217.665c-1.096,0.041-2.233,0.052-3.143-0.063c-0.386-0.052,1.42,0.011,3.352,0.053
				C253.422,217.654,253.349,217.665,253.275,217.665z"/>
			<path fill="#2C3888" d="M259.498,196.043c-4.834,3.466-5.836,4.74-5.533,7.193c0.48,4.071-0.563,3.644-1.754-0.699
				c-0.522-1.942-2.234-4.322-3.79-5.283c-1.556-0.96-2.475-2.025-2.057-2.359c0.449-0.345,1.963,0.365,3.352,1.566
				c2.328,1.983,2.85,2.035,5.836,0.574c3.466-1.702,7.924-5.732,9.406-8.52c0.627-1.159,0.825-0.908,0.669,0.824
				C265.491,190.875,263.121,193.475,259.498,196.043z"/>
			<path fill="#2C3888" d="M268.018,177.47c-3.236,1.827-4.928,1.848-15.796,0.146c-9.365-1.473-12.226-1.566-12.455-0.396
				c-0.178,0.845-0.512,3.987-0.805,6.994c-0.271,3.007-1.022,5.711-1.67,6.004c-0.658,0.303-0.637-1.827,0.104-5.074
				c0.835-3.696,0.814-5.962-0.073-6.672c-0.73-0.595-6.734-1.826-13.385-2.745c-11.098-1.535-14.752-2.735-12.831-4.218
				c0.407-0.324,2.935,0.312,5.617,1.409c2.944,1.2,7.799,2.057,12.226,2.141l7.34,0.146l3.946-10.67
				c3.319-9.041,4.959-11.745,10.722-17.769c3.706-3.915,6.692-6.65,6.599-6.086c-0.095,0.574-1.065,1.962-2.183,3.101
				c-1.096,1.127-2.266,3.665-2.6,5.617c-0.323,1.962-0.71,2.61-0.846,1.451c-0.783-5.836-5.658,0.846-10.534,14.418
				c-2.099,5.814-3.55,10.899-3.257,11.285c0.292,0.387,0.626,0.053,0.73-0.741c0.125-1.064,3.331-0.95,12.413,0.438
				c10.848,1.66,12.633,1.649,15.797-0.136c2.558-1.44,3.915-3.361,4.854-6.827c0.699-2.642,2.339-5.597,3.644-6.557
				c2.244-1.66,2.266-1.618,0.428,0.991c-1.044,1.504-2.442,4.751-3.121,7.225C272.016,174.077,270.564,176.039,268.018,177.47z"/>
			<path fill="#2C3888" d="M206.921,134.728c-0.542-0.062,0.042-1.347,1.315-2.84c2.924-3.435,3.195-12.215,0.616-19.408
				c-2.171-5.972-1.973-9.072,0.679-10.764c2.203-1.389,2.381-0.501,0.428,2.234c-0.908,1.284-0.699,3.936,0.647,8.634
				c1.075,3.738,1.702,9.01,1.378,11.724C211.39,129.403,208.707,134.958,206.921,134.728z"/>
			<path fill="#2C3888" d="M217.393,78.831c-5.638-1.232-10.544-2.652-10.92-3.153c-1.19-1.618,20.849,2.777,22.122,4.406
				c0.679,0.877,0.731,1.441,0.126,1.274C228.125,81.19,223.021,80.052,217.393,78.831z"/>
			<path fill="#2C3888" d="M195.416,188.912c-0.553,0.438-1.42,2.359-1.952,4.249c-0.835,3.038-0.897,2.913-0.554-1.075
				c0.324-3.612,0.888-4.583,2.809-4.844c1.869-0.24,2.359-1.023,2.214-3.477c-0.209-3.08-0.188-3.091,0.824-0.345
				c0.93,2.495,1.911,2.913,8.78,3.727c4.26,0.512,9.918,0.449,12.591-0.136c5.439-1.189,7.079-0.637,2.861,0.981
				c-1.524,0.574-8.123,0.836-14.68,0.585C201.753,188.317,195.948,188.474,195.416,188.912z"/>
			<path fill="#2C3888" d="M110.673,125.425c-1.691-1.242-2.025-1.921-0.877-1.785c0.992,0.125,2.746,1.127,3.873,2.224
				C116.248,128.38,114.317,128.098,110.673,125.425z"/>
			<path fill="#2C3888" d="M120.424,74.258c0.25,0.334-1.055,2.193-2.913,4.124c-5.805,6.014-7.183,8.707-9.051,17.696
				c-1.712,8.3-1.806,8.467-2.109,3.727c-0.407-6.65,2.474-13.53,8.624-20.504C117.71,76.189,120.163,73.924,120.424,74.258z"/>
			<path fill="#70C7B3" d="M208.236,131.888c-1.273,1.493-1.857,2.777-1.315,2.84c1.786,0.23,4.469-5.324,5.063-10.419
				c0.324-2.714-0.303-7.986-1.378-11.724c-1.347-4.698-1.556-7.35-0.647-8.634c1.953-2.735,1.775-3.623-0.428-2.234
				c-2.651,1.691-2.85,4.792-0.679,10.764C211.432,119.673,211.16,128.453,208.236,131.888z M192.91,192.086
				c-0.344,3.988-0.281,4.113,0.554,1.075c0.532-1.89,1.399-3.811,1.952-4.249c0.532-0.438,6.337-0.595,12.894-0.334
				c6.557,0.251,13.155-0.011,14.68-0.585c4.218-1.618,2.578-2.171-2.861-0.981c-2.673,0.585-8.331,0.647-12.591,0.136
				c-6.869-0.813-7.851-1.231-8.78-3.727c-1.013-2.746-1.033-2.735-0.824,0.345c0.146,2.453-0.345,3.236-2.214,3.477
				C193.798,187.503,193.234,188.474,192.91,192.086z M111.686,229.796c1.587,0.355-6.348-8.812-11.37-13.144
				c-3.445-2.976-6.536-6.901-7.434-9.438c-0.845-2.391-1.618-3.664-1.712-2.829c-0.459,3.487,2.714,8.895,7.559,12.862
				c2.83,2.317,6.796,6.076,8.791,8.331C109.535,227.833,111.394,229.733,111.686,229.796z M281.684,196.001l1.733-5.742
				c0.949-3.152,2.255-6.744,2.902-7.966c0.95-1.806,0.846-1.994-0.543-1.002c-0.939,0.679-2.234,4.26-2.913,7.966L281.684,196.001z
				 M276.767,201.158c0.271,4.01-2.924,8.342-6.933,9.396c-2.297,0.605-2.391,0.772-0.563,1.065c1.189,0.188,3.758-0.981,5.7-2.6
				c1.952-1.629,5.355-3.612,7.559-4.417c5.585-2.046,6.817-4.312,8.185-15.128c1.003-7.893,0.867-9.887-0.845-12.1
				c-2.464-3.163-7.685-4.062-11.13-1.9c-2.495,1.545-2.475,1.556-0.083,1.034c5.805-1.274,7.684-0.93,9.782,1.764
				c1.827,2.35,1.973,4.187,0.971,12.101c-1.013,8.091-1.565,9.615-4.04,11.4c-3.748,2.693-6.515,2.255-7.799-1.242
				C276.589,197.881,276.536,197.912,276.767,201.158z M267.078,176.112c-3.164,1.785-4.949,1.796-15.797,0.136
				c-9.082-1.389-12.288-1.503-12.413-0.438c-0.104,0.794-0.438,1.128-0.73,0.741c-0.293-0.386,1.158-5.471,3.257-11.285
				c4.876-13.572,9.751-20.254,10.534-14.418c0.136,1.159,0.522,0.511,0.846-1.451c0.334-1.952,1.504-4.489,2.6-5.617
				c1.117-1.138,2.088-2.526,2.183-3.101c0.094-0.564-2.893,2.171-6.599,6.086c-5.763,6.024-7.402,8.728-10.722,17.769l-3.946,10.67
				l-7.34-0.146c-4.427-0.084-9.281-0.94-12.226-2.141c-2.683-1.097-5.21-1.733-5.617-1.409c-1.921,1.482,1.733,2.683,12.831,4.218
				c6.65,0.919,12.654,2.15,13.385,2.745c0.888,0.71,0.908,2.976,0.073,6.672c-0.741,3.247-0.763,5.377-0.104,5.074
				c0.647-0.293,1.398-2.997,1.67-6.004c0.293-3.007,0.627-6.149,0.805-6.994c0.229-1.17,3.09-1.076,12.455,0.396
				c10.868,1.701,12.56,1.681,15.796-0.146c2.547-1.431,3.998-3.393,4.865-6.525c0.679-2.474,2.077-5.721,3.121-7.225
				c1.838-2.609,1.816-2.651-0.428-0.991c-1.305,0.96-2.944,3.915-3.644,6.557C270.993,172.751,269.636,174.672,267.078,176.112z
				 M264.958,188.516c-1.482,2.787-5.94,6.817-9.406,8.52c-2.986,1.461-3.508,1.409-5.836-0.574
				c-1.389-1.201-2.902-1.911-3.352-1.566c-0.418,0.334,0.501,1.399,2.057,2.359c1.556,0.961,3.268,3.341,3.79,5.283
				c1.19,4.343,2.234,4.771,1.754,0.699c-0.303-2.453,0.699-3.728,5.533-7.193c3.623-2.568,5.993-5.168,6.129-6.703
				C265.783,187.607,265.585,187.356,264.958,188.516z M266.138,217.508c-6.546-1.18-15.326-1.89-21.245-1.723
				c-9.167,0.251-10.618,0.021-15.713-2.578c-8.832-4.489-16.579-4.197-33.419,1.252c-13.823,4.469-14.418,4.553-24.367,3.227
				c-9.615-1.284-10.492-1.629-15.535-6.098c-2.944-2.609-5.868-6.086-6.483-7.735c-1.044-2.715-0.804-3.205,2.704-5.335
				c2.976-1.827,5.272-2.183,10.273-1.577c5.22,0.616,6.065,0.47,4.437-0.772c-4.229-3.236-18.625-0.042-19.168,4.26
				c-0.146,1.211-1.43,0.897-5.773-1.409c-3.623-1.921-8.196-3.236-12.936-3.728l-7.318-0.752l8.091,1.817
				c7.726,1.743,17.675,6.64,18.887,9.291c0.616,1.348-13.019,8.509-22.958,12.059c-7.058,2.517-9.563,4.416-8.592,6.536
				c0.856,1.879,6.713,5.011,6.88,3.675c0.073-0.554-1.148-1.504-2.704-2.119c-4.322-1.691-3.08-3.905,3.445-6.066
				c3.247-1.086,10.315-4.103,15.691-6.724l9.814-4.739l4.187,3.978l4.187,3.988l-5.293,2.005c-2.923,1.106-8.895,5.23-13.27,9.155
				c-10.66,9.553-16.391,12.299-23.741,11.359c-9.73-1.232-17.059-7.621-17.916-15.587c-0.428-3.988-0.438-3.979-1.2,1.044
				c-0.992,6.566-2.725,8.853-7.476,9.865c-4.844,1.034-6.452,0.741-12.267-2.192c-6.629-3.341-14-12.068-14.804-17.55
				c-0.793-5.429,0.219-14.501,1.587-14.324c0.543,0.073,1.806,1.306,2.819,2.746s2.067,2.443,2.359,2.214
				c0.292-0.22-0.626-1.9-2.036-3.728c-2.14-2.746-2.328-3.895-1.201-6.535c2.433-5.597,6.41-11.934,8.77-13.979
				c4.542-3.937,27.812-17.676,26.821-15.838c-2.443,4.552-3.247,7.652-1.817,7.005c0.804-0.365,1.598-1.723,1.754-3.007
				c0.418-3.372,2.746-6.306,10.357-13.123c7.789-6.974,12.528-7.768,11.797-1.952c-0.24,1.837,0.595,5.355,1.848,7.819
				c1.503,2.955,1.848,4.98,1.044,5.962c-0.679,0.804-1.441,3.121-1.691,5.136c-0.658,4.907-2.662,5.92-11.244,5.742
				c-3.988-0.094-7.214,0.167-7.162,0.574c0.199,2.089-6.661,8.822-8.728,8.551c-2.996-0.365-13.29,6.087-16.015,10.033
				c-2.266,3.289-4.093,15.086-2.965,19.126c0.407,1.483,0.856-0.908,1.106-5.898c0.522-10.336,2.965-14.574,11.004-19.053
				c8.968-5.001,11.422-3.895,14.543,6.535c1.148,3.821,2.62,7.392,3.289,7.924c0.71,0.585,0.72,2.422,0,4.583
				c-0.888,2.694-0.825,3.195,0.261,1.994c0.793-0.877,1.566-2.526,1.712-3.653c0.198-1.41,1.294-1.963,3.539-1.796
				c2.809,0.229,2.715,0.094-0.772-0.981c-3.445-1.075-4.322-2.15-6.17-7.726c-1.19-3.561-2.725-7.215-3.445-8.112
				c-1.869-2.401-1.315-4.145,2.433-7.601c2.537-2.328,4.719-3.08,9.114-3.111c7.652-0.041,10.576-1.785,11.212-6.66
				c0.459-3.592,0.783-3.863,3.978-3.289c1.921,0.345,5.679,1.295,8.352,2.109c3.362,1.022,4.938,1.075,5.042,0.156
				c0.104-0.741-1.691-1.556-4.061-1.858c-8.06-1.013-15.879-9.866-14.992-16.934c0.459-3.623,5.095-9.334,8.979-11.099
				c8.885-4.03,52.232-5.867,55.553-2.349c1.002,1.075,0.198,2.349-3.498,5.522c-4.249,3.644-4.761,4.636-4.583,8.498
				c0.125,2.412,1.096,5.993,2.182,7.977c1.065,1.983,1.608,4.218,1.211,4.98c-0.406,0.751-4.176,2.683-8.383,4.291
				c-5.46,2.077-8.843,2.641-11.818,2.004c-3.832-0.824-4.312-1.398-5.617-6.859c-1.482-6.201-4.02-10.806-6.076-11.056
				c-0.657-0.094-0.219,1.18,0.981,2.809c2.579,3.55,4.803,11.098,4.343,14.71c-0.532,4.26-6.451,12.288-12.476,16.965
				c-3.09,2.412-5.272,4.406-4.792,4.448c3.153,0.25,15.451-11.714,17.268-16.777c1.473-4.187,3.529-4.364,3.018-0.271
				c-0.198,1.618,0.585,4.176,1.775,5.689c2.046,2.662,12.309,9.72,14.679,10.117c0.647,0.104,2.745,2.046,4.677,4.301
				c3.696,4.312,3.686,4.354-2.526,6.911c-1.378,0.564-5.721,1.003-9.646,0.95l-7.12-0.073l6.17,0.94
				c5.94,0.918,14.596-0.95,16.735-3.603c0.554-0.679,1.932-0.479,3.884,0.564c6.358,3.413,22.885,0.136,26.612-5.283
				c1.19-1.712,1.754-3.174,1.231-3.236c-0.501-0.073-1.576,0.961-2.4,2.286c-2.61,4.229-10.472,6.202-19.941,5.001
				c-7.944-1.002-8.687-1.326-11.725-5.251l-3.236-4.177l2.35-7.067c1.284-3.884,2.099-7.36,1.827-7.726
				c-0.282-0.366-1.566,2.484-2.84,6.337c-1.274,3.853-2.715,7.172-3.216,7.402c-1.598,0.741-14.271-8.112-15.253-10.67
				c-1.514-3.957-1.044-4.489,4.583-5.252c2.902-0.396,9.156-2.662,13.886-5.042c9.302-4.667,12.351-5.012,13.812-1.577
				c0.846,2.005,0.971,1.983,1.284-0.25c0.239-1.66,2.369-3.383,6.504-5.294c7.757-3.539,19.054-14.971,23.637-23.845
				c2.714-5.283,4.229-6.911,7.225-7.788c3.288-0.96,3.445-1.169,1.169-1.493c-3.55-0.511-7.392,2.683-9.542,7.924
				c-3.654,8.937-16.443,21.59-25.192,24.921c-2.798,1.064-7.162,1.994-9.72,2.057c-4.207,0.114-4.771-0.22-6.358-3.77
				c-0.971-2.171-1.472-6.065-1.127-8.821c0.521-4.176,1.253-5.283,4.802-7.34c2.297-1.336,5.773-2.819,7.727-3.289
				c1.941-0.47,3.31-1.159,3.027-1.514c-0.282-0.365-2.036-0.292-3.926,0.167c-2.683,0.647-3.769,0.386-5.168-1.222
				c-0.96-1.127-2.798-2.171-4.082-2.328c-2.224-0.282-2.234-0.96-0.25-13.447c1.723-10.806,1.806-13.604,0.501-15.712
				c-1.598-2.568-1.598-2.568-1.013-0.115c0.824,3.498,0.48,12.278-0.564,14.22c-0.73,1.357-1.576,1.034-4.823-1.806
				c-2.15-1.911-4.51-3.539-5.24-3.612c-0.721-0.073,0.49,1.222,2.672,2.892c2.183,1.67,4.364,4.208,4.865,5.648
				c3.018,8.843,0.888,11.349-9.646,11.39c-4.229,0.021-10.952,0.407-14.93,0.867c-4.009,0.459-10.388,1.075-14.198,1.378
				c-3.978,0.303-8.572,1.598-10.785,3.038l-3.894,2.506l0.626-4.98c0.355-2.735,3.236-10.492,6.39-17.237
				c5.021-10.701,6.013-13.979,7.809-25.913c1.921-12.831,2.391-14.261,7.82-23.647c3.185-5.492,6.942-12.163,8.373-14.825
				l2.589-4.844l6.975,1.368c4.479,0.877,9.792,3.08,14.908,6.16c8.561,5.179,9.229,5.471,9.406,4.009
				c0.073-0.533-1.764-1.702-4.04-2.6c-5.22-2.036-6.128-4.844-1.357-4.249c2.996,0.386,15.055,5.074,16.016,6.243
				c0.407,0.491-6.734,8.112-8.738,9.323c-0.721,0.428-4.093,0.209-7.538-0.47c-6.014-1.211-6.139-1.18-3.236,0.835
				c1.649,1.148,4.28,2.004,5.856,1.911c1.566-0.094,2.819,0.136,2.735,0.532c-0.292,1.869-5.251,5.356-9.553,6.713
				c-2.62,0.825-6.034,2.84-7.59,4.479l-2.84,2.986l-3.08-3.32c-1.67-1.817-3.925-3.414-5.011-3.55
				c-1.211-0.146-0.731,0.605,1.222,1.963c5.721,3.967,6.045,5.898,2.046,11.808c-3.456,5.137-5.168,6.149-6.254,3.759
				c-0.824-1.817-4.113-0.616-4.385,1.597c-0.198,1.67-0.031,1.712,1.097,0.324c1.002-1.222,1.618-1.242,2.516-0.073
				c0.919,1.169,0.491,2.308-1.765,4.761c-1.639,1.765-3.936,4.917-5.146,6.995c-1.921,3.362-1.994,4.113-0.585,6.817
				c0.888,1.66,1.723,5.199,1.858,7.851l0.261,4.834l0.23-4.74c0.136-2.6-0.24-6.494-0.846-8.655
				c-1.013-3.706-0.794-4.27,4.145-10.189c2.871-3.456,6.984-8.655,9.135-11.578c2.151-2.923,5.805-7.277,8.133-9.688
				c3.623-3.769,4.803-4.291,8.373-3.728c5.43,0.846,12.519,7.36,14.074,12.967c0.678,2.37,1.336,3.633,1.482,2.788
				c0.125-0.846-0.115-2.485-0.564-3.644c-0.73-1.911,0.095-1.973,8.707-0.564c17.487,2.84,25.526,7.59,27.479,16.235
				c0.521,2.359,1.367,4.343,1.857,4.406c0.491,0.062,0.564-1.264,0.157-2.955c-0.647-2.642-0.407-3.028,1.629-2.777
				c1.294,0.167,4.312,1.629,6.702,3.257c3.372,2.297,4.28,3.675,4.062,6.17c-0.157,1.994,0.042,2.464,0.532,1.242
				c1.222-3.069,2.892-2.192,12.037,6.358c8.927,8.353,11.787,14.115,9.647,19.565c-0.554,1.441-5.836,6.787-11.745,11.881
				c-5.909,5.084-10.451,9.595-10.117,10.012c0.334,0.418,1.64-0.449,2.902-1.932c1.253-1.482,6.338-6.034,11.286-10.116
				c5.053-4.197,9.104-8.488,9.292-9.845c0.688-5.575,9.751,0.929,10.252,7.392c0.115,1.545,0.491,4.99,0.825,7.652
				c0.563,4.489,0.626,4.322,0.918-2.266c0.293-7.109,0.293-7.109,2.203-4.238c1.055,1.587,2.036,4.928,2.161,7.423
				c0.146,2.495,1.389,7.36,2.777,10.806c3.759,9.281,3.686,12.361-0.522,23.709C285.724,218.594,282.957,220.535,266.138,217.508z
				 M259.498,134.237c-0.595-0.073-1.211,0.919-1.367,2.213c-0.167,1.294-0.095,2.37,0.156,2.401c0.24,0.031,0.856-0.96,1.357-2.213
				C260.146,135.396,260.083,134.32,259.498,134.237z"/>
			<path fill="#2C3888" d="M107.52,225.578c-1.994-2.255-5.961-6.014-8.791-8.331c-4.844-3.968-8.018-9.375-7.559-12.862
				c0.094-0.835,0.867,0.438,1.712,2.829c0.898,2.537,3.988,6.463,7.434,9.438c5.022,4.332,12.957,13.499,11.37,13.144
				C111.394,229.733,109.535,227.833,107.52,225.578z"/>
			<path fill="#70C7B3" d="M86.118,167.04c-1.305-3.111-1.253-3.748,0.376-4.781c1.451-0.94,2.245-0.752,3.665,0.835
				c0.981,1.117,2.526,2.349,3.403,2.746c1.127,0.511,0.47,1.336-2.171,2.756l-3.779,2.025L86.118,167.04z"/>
			<path fill="#70C7B3" d="M118.169,240.278l-3.007,1.921c-1.67,1.064-5.032,2.224-7.486,2.589
				c-8.331,1.211-16.287-1.398-19.45-6.399c-1.18-1.849-0.971-2.214,1.723-2.861c1.702-0.417,4.197-1.879,5.554-3.257l2.422-2.506
				l5.272,4.594c3.8,3.33,6.599,4.792,10.117,5.262L118.169,240.278z"/>
			<path fill="#2C3888" d="M65.279,103.877c-0.773-2.088-1.169-5.272-0.856-7.068l0.533-3.268l0.407,3.623
				c0.208,1.994,0.898,4.938,1.514,6.546c0.616,1.607,0.825,3.153,0.459,3.445C66.96,107.437,66.042,105.965,65.279,103.877z"/>
			<path fill="#70C7B3" d="M55.236,191.825c-5.158-1.556-8.52-3.728-10.409-6.692c-1.148-1.806-0.031-1.858,10.388-0.543
				c6.421,0.814,11.954,1.848,12.309,2.308c0.355,0.459-0.324,2.244-1.514,3.978C63.755,194.122,63.045,194.195,55.236,191.825z"/>
			<path fill="#70C7B3" d="M31.62,186.845c-1.514-4.854-1.023-5.366,4.5-4.666c4.145,0.521,5.773,1.42,8.133,4.447
				c2.756,3.56,10.92,7.485,17.206,8.289c2.558,0.324,2.725,2.694,0.313,4.562c-2.172,1.691-5.982,0.835-16.559-3.664
				C33.144,190.688,32.727,190.416,31.62,186.845z"/>
			<path fill="#70C7B3" d="M2.638,153.688l2.088,0.167c-0.198,1.325,0.918,5.104,2.454,8.394c1.555,3.299,2.704,6.922,2.558,8.07
				c-0.574,4.552,2.234,6.984,10.753,9.281c7.809,2.119,8.311,2.453,9.365,6.254l1.107,4.009l-4.312-0.668
				c-14.564-2.266-21.977-10.169-23.918-25.526C2.367,160.724,2.356,157.289,2.638,153.688z"/>
			<path fill="#70C7B3" d="M21.461,197.307c-1.785-2.59-1.702-2.621,7.225-2.819c7.977-0.167,9.971,0.198,17.174,3.216
				c4.489,1.879,9.876,3.622,11.985,3.894c2.454,0.313,3.758,1.065,3.633,2.089c-0.146,1.117-2.631,1.523-8.216,1.367
				C29.031,204.385,25.773,203.591,21.461,197.307z"/>
			<path fill="#70C7B3" d="M47.959,181.99c-34.275-4.196-35.34-4.51-36.447-10.899c-0.324-1.869,0.355-3.32,2.245-4.781
				c3.498-2.715,4.468-2.517,5.627,1.189c1.555,5.022,6.587,7.56,18.489,9.313c5.899,0.877,15.378,1.701,21.037,1.837
				c11.787,0.292,14.585,1.211,12.528,4.113C70.207,184.496,67.837,184.412,47.959,181.99z"/>
			<path fill="#70C7B3" d="M64.956,93.541l-0.533,3.268c-0.313,1.795,0.083,4.98,0.856,7.068c0.762,2.088,1.681,3.56,2.057,3.278
				c0.365-0.292,0.157-1.838-0.459-3.445c-0.616-1.608-1.305-4.552-1.514-6.546L64.956,93.541z M109.796,123.64
				c-1.148-0.136-0.814,0.543,0.877,1.785c3.644,2.673,5.575,2.955,2.996,0.438C112.542,124.768,110.788,123.766,109.796,123.64z
				 M120.424,74.258c-0.261-0.334-2.714,1.932-5.45,5.043c-6.149,6.974-9.031,13.854-8.624,20.504
				c0.303,4.74,0.396,4.573,2.109-3.727c1.869-8.989,3.247-11.683,9.051-17.696C119.37,76.451,120.675,74.592,120.424,74.258z
				 M120.007,142.965c-0.011-2.391-0.626-6.974-1.347-10.179c-1.524-6.734,0.324-11.536,5.043-13.123
				c1.921-0.647,2.182-1.013,0.846-1.232c-2.485-0.428-6.024,2.756-7.862,7.068c-1.201,2.798-1.085,4.771,0.585,9.751
				c3.393,10.159,2.652,11.933-9.062,21.423c-7.924,6.421-10.994,8.237-13.458,7.924c-1.837-0.229-3.54-1.336-4.009-2.6
				c-1.754-4.635-2.328-22.697-0.918-28.762c1.148-4.917,1.106-5.951-0.209-5.116c-0.919,0.584-2.036,0.616-2.506,0.073
				c-0.47-0.542-0.563,0.115-0.24,1.462c0.334,1.357,0.532,4.698,0.449,7.444c-0.094,2.746,0.136,8.665,0.501,13.175
				c0.647,7.622,0.522,8.3-1.723,10.075c-2.286,1.796-2.568,1.765-5.199-0.47c-3.215-2.756-15.482-5.763-18.5-4.541
				c-1.419,0.574,0.397,1.158,5.847,1.868c9.375,1.211,14.355,4.208,16.412,9.866c1.43,3.884,1.42,3.904-3.644,7.83l-5.074,3.946
				l-25.484-2.912l-25.495-2.913l-2.672-3.435c-2.767-3.54-3.675-11.484-1.733-15.107c0.94-1.743,1.127-1.702,2.422,0.543
				c1.816,3.153,2.088,1.044,0.407-3.038c-3.205-7.694,2.067-23.313,8.686-25.735c4.875-1.795,9.574-1.064,9.261,1.42
				c-0.282,2.224,6.828,22.896,7.652,22.248c0.292-0.229-1.065-5.136-3.017-10.899c-3.644-10.806-3.905-18.072-0.804-22.457
				c0.877-1.221,1.033-2.171,0.407-2.255c-1.461-0.178-2.881,2.652-3.414,6.817c-0.376,2.997-0.846,3.362-3.895,2.976
				c-7.903-1.002-13.635,4.239-16.882,15.42c-1.2,4.103-1.858,4.834-4.103,4.552c-1.493-0.188-3.445,0.365-4.374,1.221
				c-1.159,1.096-1.274,1.629-0.366,1.754c0.721,0.083,1.389-0.365,1.472-1.013c0.178-1.43,5.669-0.877,6.358,0.647
				c0.282,0.595-0.25,4.447-1.159,8.551c-1.503,6.744-2.015,7.61-5.439,9.041c-2.088,0.856-3.853,1.409-3.904,1.222
				c-0.083-0.198-0.731-1.357-1.451-2.59c-0.721-1.231-1.754-4.312-2.318-6.849c-0.637-2.892-1.148-3.706-1.368-2.202l-2.088-0.167
				c0.658-8.311,2.913-17.53,6.076-23.804c4.197-8.362,11.85-20.671,14.971-24.117c1.409-1.556,3.153-4.375,3.863-6.243
				c2.412-6.348,7.089-10.618,18.845-17.206c6.441-3.602,12.82-7.841,14.157-9.407c1.336-1.576,5.554-4.197,9.375-5.846
				c3.811-1.639,9.042-3.905,11.62-5.043c2.568-1.127,11.704-3.904,20.296-6.149c8.582-2.266,18.239-5.335,21.444-6.838
				c13.343-6.275,24.19,2.589,13.792,11.275c-3.591,3.007-3.967,3.038-21.005,2.067c-20.88-1.18-24.252-0.334-32.918,8.332
				c-3.424,3.424-9.125,7.945-12.664,10.033C66.96,82.84,58.848,87.59,52.479,91.296C39.93,98.615,35.671,102.75,33.52,109.723
				c-1.357,4.385-2.245,5.231-14.136,13.552c-2.224,1.556-4.166,3.727-4.302,4.813c-0.156,1.252,0.762,0.71,2.527-1.483
				c1.514-1.91,4.416-4.071,6.441-4.823c5.147-1.89,9.177-6.191,10.722-11.474c1.837-6.295,5.982-10.565,15.744-16.214
				c24.994-14.47,29.963-17.748,33.732-22.3c6.337-7.663,9.532-8.624,27.468-8.174c23.302,0.574,21.068-0.585,19.022,9.97
				c-2.339,12.09-7.538,20.003-20.787,31.624c-5.69,5-11.495,10.221-12.873,11.599c-4.646,4.667-5.408,2.944-5.585-12.466
				c-0.199-17.947,0.292-21.893,3.529-28.533c1.806-3.696,2.224-5.627,1.451-6.619c-0.595-0.783-1.545-1.033-2.109-0.563
				c-0.564,0.47-0.449,1.138,0.24,1.482c0.898,0.449,0.574,2.015-1.106,5.356c-2.328,4.688-2.976,10.451-3.853,33.899l-0.292,7.914
				l-3.393-0.042c-2.819-0.031-3.769,0.752-5.45,4.468c-1.127,2.475-2.568,6.39-3.215,8.687c-1.284,4.573-6.035,10.597-9.636,12.194
				c-1.89,0.845-2.798,0.282-5.241-3.247c-1.639-2.339-2.913-4.656-2.86-5.126c0.062-0.48,1.754-1.368,3.769-1.963
				c2.015-0.605,5.074-2.892,6.807-5.084c1.744-2.203,5.011-5.899,7.287-8.237l4.093-4.218l-3.612,2.495
				c-2.004,1.389-5.199,4.552-7.131,7.037c-3.633,4.698-8.321,7.674-11.453,7.287c-1.691-0.219-2.589-2.213-3.696-8.081
				c-0.219-1.273-0.772-2.046-1.19-1.723c-1.681,1.305,1.19,9.595,5.45,15.744l4.542,6.525l-4.364,1.201
				c-5.366,1.482-9.897,6.911-10.649,12.706l-0.543,4.343l-4.75-2.381c-2.61-1.305-6.024-3.956-7.569-5.877
				c-1.566-1.922-3.143-3.268-3.508-2.986c-0.366,0.282,0.658,2.109,2.224,4.082c4.145,5.084,14.606,10.033,24.921,11.767
				l8.749,1.472l-8.54-2.099c-4.896-1.2-8.853-2.798-9.312-3.779c-2.714-5.773,3.007-13.938,11.453-16.36
				c10.138-2.902,13.479-6.504,17.415-18.834c2.944-9.25,4.781-10.398,11.432-7.12c4.218,2.088,4.98,3.122,6.462,8.926
				c0.939,3.612,2.672,8.123,3.884,10.022l2.161,3.445l-1.754-4.385c-0.96-2.412-2.119-6.379-2.568-8.822
				c-0.438-2.433-1.691-5.45-2.756-6.692c-2.328-2.693-3.101-1.785,13.604-16.067c14.063-12.038,19.367-19.763,21.831-31.812
				c1.002-4.938,2.579-9.553,3.498-10.263c1.837-1.409,7.642-9.312,7.819-10.597c0.063-0.449-1.106-2.662-2.558-4.917
				c-3.362-5.188-1.837-6.128,7.997-4.907c7.977,0.981,12.006,3.707,11.464,7.757c-0.188,1.409-2.757,6.546-5.732,11.411
				c-9.239,15.18-11.432,20.797-13.029,33.596c-1.294,10.159-2.234,13.238-7.329,24.096c-3.957,8.425-6.108,14.595-6.65,19.105
				c-0.96,7.872-2.036,9.563-5.283,8.269C120.706,147.601,120.027,146.128,120.007,142.965z"/>
			<path fill="#2B3987" d="M86.494,162.259c-1.629,1.033-1.681,1.67-0.376,4.781l1.493,3.581l3.779-2.025
				c2.641-1.42,3.299-2.245,2.171-2.756c-0.877-0.397-2.422-1.629-3.403-2.746C88.738,161.507,87.945,161.318,86.494,162.259z
				 M44.827,185.133c1.89,2.965,5.251,5.137,10.409,6.692c7.809,2.37,8.519,2.297,10.774-0.95c1.19-1.733,1.869-3.519,1.514-3.978
				c-0.355-0.46-5.888-1.493-12.309-2.308C44.795,183.274,43.678,183.327,44.827,185.133z M36.12,182.179
				c-5.523-0.7-6.014-0.188-4.5,4.666c1.106,3.571,1.524,3.843,13.593,8.969c10.576,4.499,14.387,5.355,16.559,3.664
				c2.412-1.868,2.245-4.238-0.313-4.562c-6.285-0.804-14.449-4.729-17.206-8.289C41.893,183.599,40.265,182.7,36.12,182.179z
				 M28.686,194.487c-8.926,0.198-9.01,0.229-7.225,2.819c4.312,6.284,7.569,7.078,31.801,7.746c5.585,0.156,8.07-0.25,8.216-1.367
				c0.125-1.023-1.18-1.775-3.633-2.089c-2.109-0.271-7.496-2.015-11.985-3.894C38.657,194.686,36.663,194.32,28.686,194.487z
				 M13.757,166.31c-1.89,1.461-2.568,2.912-2.245,4.781c1.106,6.39,2.171,6.703,36.447,10.899
				c19.878,2.422,22.248,2.506,23.48,0.772c2.057-2.902-0.741-3.821-12.528-4.113c-5.659-0.136-15.138-0.96-21.037-1.837
				c-11.902-1.754-16.934-4.291-18.489-9.313C18.225,163.793,17.254,163.595,13.757,166.31z M118.169,240.278l-4.855-0.658
				c-3.518-0.47-6.316-1.932-10.117-5.262l-5.272-4.594l-2.422,2.506c-1.357,1.378-3.853,2.84-5.554,3.257
				c-2.693,0.647-2.902,1.013-1.723,2.861c3.164,5.001,11.119,7.61,19.45,6.399c2.454-0.365,5.815-1.524,7.486-2.589
				L118.169,240.278z M118.66,132.786c0.721,3.205,1.336,7.789,1.347,10.179c0.021,3.164,0.699,4.636,2.433,5.335
				c3.247,1.295,4.322-0.396,5.283-8.269c0.542-4.51,2.693-10.68,6.65-19.105c5.095-10.858,6.034-13.938,7.329-24.096
				c1.598-12.799,3.79-18.417,13.029-33.596c2.976-4.865,5.544-10.002,5.732-11.411c0.542-4.051-3.487-6.776-11.464-7.757
				c-9.834-1.222-11.359-0.282-7.997,4.907c1.451,2.255,2.621,4.469,2.558,4.917c-0.177,1.284-5.982,9.188-7.819,10.597
				c-0.919,0.71-2.496,5.325-3.498,10.263c-2.464,12.048-7.768,19.774-21.831,31.812c-16.704,14.282-15.932,13.374-13.604,16.067
				c1.065,1.242,2.318,4.26,2.756,6.692c0.449,2.443,1.607,6.41,2.568,8.822l1.754,4.385l-2.161-3.445
				c-1.211-1.9-2.944-6.41-3.884-10.022c-1.482-5.805-2.245-6.838-6.462-8.926c-6.651-3.278-8.488-2.13-11.432,7.12
				c-3.936,12.33-7.277,15.932-17.415,18.834c-8.446,2.422-14.167,10.586-11.453,16.36c0.459,0.981,4.416,2.579,9.312,3.779
				l8.54,2.099l-8.749-1.472c-10.315-1.733-20.776-6.683-24.921-11.767c-1.566-1.973-2.589-3.8-2.224-4.082
				c0.365-0.282,1.942,1.064,3.508,2.986c1.545,1.921,4.959,4.572,7.569,5.877l4.75,2.381l0.543-4.343
				c0.751-5.795,5.283-11.224,10.649-12.706l4.364-1.201l-4.542-6.525c-4.259-6.149-7.13-14.439-5.45-15.744
				c0.418-0.324,0.971,0.449,1.19,1.723c1.106,5.868,2.004,7.861,3.696,8.081c3.132,0.387,7.82-2.589,11.453-7.287
				c1.932-2.485,5.126-5.648,7.131-7.037l3.612-2.495l-4.093,4.218c-2.276,2.338-5.543,6.034-7.287,8.237
				c-1.733,2.192-4.792,4.479-6.807,5.084c-2.015,0.595-3.706,1.482-3.769,1.963c-0.052,0.47,1.221,2.787,2.86,5.126
				c2.443,3.529,3.352,4.092,5.241,3.247c3.602-1.598,8.352-7.622,9.636-12.194c0.647-2.297,2.088-6.212,3.215-8.687
				c1.681-3.716,2.631-4.5,5.45-4.468l3.393,0.042l0.292-7.914c0.877-23.448,1.524-29.211,3.853-33.899
				c1.681-3.341,2.004-4.907,1.106-5.356c-0.689-0.345-0.804-1.013-0.24-1.482c0.563-0.47,1.514-0.219,2.109,0.563
				c0.772,0.992,0.355,2.923-1.451,6.619c-3.237,6.64-3.728,10.586-3.529,28.533c0.177,15.41,0.939,17.132,5.585,12.466
				c1.378-1.378,7.183-6.599,12.873-11.599c13.249-11.62,18.448-19.534,20.787-31.624c2.046-10.555,4.28-9.396-19.022-9.97
				c-17.937-0.449-21.131,0.511-27.468,8.174c-3.769,4.552-8.738,7.831-33.732,22.3c-9.761,5.648-13.906,9.918-15.744,16.214
				c-1.545,5.283-5.575,9.584-10.722,11.474c-2.025,0.752-4.928,2.913-6.441,4.823c-1.765,2.193-2.683,2.735-2.527,1.483
				c0.136-1.086,2.078-3.257,4.302-4.813c11.891-8.321,12.779-9.167,14.136-13.552c2.151-6.974,6.41-11.108,18.959-18.427
				c6.369-3.706,14.48-8.457,18.009-10.555c3.539-2.088,9.24-6.608,12.664-10.033c8.666-8.666,12.038-9.511,32.918-8.332
				c17.038,0.971,17.414,0.94,21.005-2.067c10.398-8.687-0.449-17.55-13.792-11.275c-3.205,1.503-12.862,4.573-21.444,6.838
				c-8.592,2.245-17.728,5.021-20.296,6.149c-2.579,1.138-7.809,3.404-11.62,5.043c-3.821,1.649-8.039,4.27-9.375,5.846
				c-1.336,1.566-7.715,5.805-14.157,9.407C34.637,88.906,29.96,93.176,27.548,99.523c-0.71,1.869-2.454,4.688-3.863,6.243
				c-3.122,3.445-10.774,15.754-14.971,24.117c-3.164,6.274-5.418,15.493-6.076,23.804c-0.282,3.602-0.271,7.036,0.094,9.98
				c1.942,15.357,9.354,23.261,23.918,25.526l4.312,0.668l-1.107-4.009c-1.054-3.801-1.556-4.135-9.365-6.254
				c-8.519-2.297-11.328-4.729-10.753-9.281c0.146-1.148-1.002-4.771-2.558-8.07c-1.535-3.289-2.652-7.068-2.454-8.394
				c0.219-1.504,0.731-0.689,1.368,2.202c0.563,2.537,1.597,5.617,2.318,6.849c0.72,1.232,1.368,2.392,1.451,2.59
				c0.052,0.188,1.816-0.365,3.904-1.222c3.424-1.431,3.936-2.297,5.439-9.041c0.908-4.104,1.441-7.956,1.159-8.551
				c-0.689-1.524-6.18-2.078-6.358-0.647c-0.083,0.647-0.751,1.096-1.472,1.013c-0.908-0.125-0.793-0.658,0.366-1.754
				c0.929-0.856,2.881-1.409,4.374-1.221c2.245,0.282,2.903-0.449,4.103-4.552c3.247-11.181,8.979-16.422,16.882-15.42
				c3.049,0.386,3.519,0.021,3.895-2.976c0.532-4.166,1.952-6.995,3.414-6.817c0.626,0.083,0.47,1.034-0.407,2.255
				c-3.101,4.385-2.84,11.651,0.804,22.457c1.952,5.763,3.31,10.67,3.017,10.899c-0.825,0.647-7.935-20.024-7.652-22.248
				c0.313-2.484-4.385-3.215-9.261-1.42c-6.619,2.422-11.891,18.041-8.686,25.735c1.681,4.082,1.409,6.191-0.407,3.038
				c-1.295-2.245-1.482-2.286-2.422-0.543c-1.942,3.623-1.034,11.567,1.733,15.107l2.672,3.435l25.495,2.913l25.484,2.912
				l5.074-3.946c5.063-3.926,5.074-3.946,3.644-7.83c-2.057-5.658-7.037-8.655-16.412-9.866c-5.45-0.71-7.266-1.294-5.847-1.868
				c3.018-1.222,15.285,1.785,18.5,4.541c2.631,2.234,2.913,2.266,5.199,0.47c2.245-1.774,2.37-2.453,1.723-10.075
				c-0.365-4.51-0.595-10.43-0.501-13.175c0.083-2.746-0.115-6.087-0.449-7.444c-0.324-1.347-0.23-2.004,0.24-1.462
				c0.47,0.543,1.587,0.512,2.506-0.073c1.315-0.835,1.357,0.198,0.209,5.116c-1.41,6.065-0.835,24.127,0.918,28.762
				c0.47,1.264,2.172,2.37,4.009,2.6c2.464,0.313,5.533-1.503,13.458-7.924c11.714-9.49,12.455-11.265,9.062-21.423
				c-1.67-4.98-1.786-6.953-0.585-9.751c1.837-4.312,5.377-7.496,7.862-7.068c1.336,0.219,1.075,0.584-0.846,1.232
				C118.983,121.25,117.136,126.052,118.66,132.786z M272.12,219.731c-0.783-0.24-6.724-3.132-18.636-2.077
				c-1.932-0.042-3.737-0.104-3.352-0.053c0.909,0.115,2.047,0.104,3.143,0.063c-0.72,0.072-1.472,0.156-2.233,0.25
				c-13.541,1.702-15.995-0.303-26.999-3.8c-16.965-5.397-16.892-0.011-31.069,3.351c-3.237,0.773-9.543,2.548-16.454,2.746
				c-8.019,0.24-10.482-4.187-17.654-1.765c-7.173,2.412-7.852,3.394-14.439,7.861c-4.354,2.944-15.211,12.038-15.232,12.027
				c-0.303-0.501-8.373,2.642-13.948,5.439c-9.292,4.636-24.159,2.317-28.188-4.385c-1.117-1.869-4.114-3.873-7.935-5.314
				c-4.97-1.879-7.298-3.769-12.08-9.751c-4.833-6.076-5.951-8.383-6.097-12.643l-0.167-5.21l-6.661-0.188
				c-3.654-0.095-10.179-0.262-14.491-0.355c-4.959-0.114-9.302-0.877-11.818-2.088c-4.124-1.963-9.469-7.444-9.208-9.438
				c0.073-0.627,3.612-1.076,7.851-0.992c4.249,0.083,7.778-0.24,7.83-0.721c0.062-0.47-3.821-1.66-8.634-2.651
				c-18.667-3.801-26.957-17.436-24.096-39.589c1.618-12.518,5.742-22.562,15.128-36.823c4.781-7.256,9.887-15.253,11.359-17.79
				c3.038-5.209,10.054-10.774,21.235-16.798c4.218-2.276,9.093-5.502,10.847-7.162C63.891,68.276,76.669,61.74,84.5,59.391
				c3.059-0.918,11.954-3.382,19.763-5.492c7.799-2.098,16.997-5.157,20.442-6.786c3.445-1.628,7.34-2.85,8.666-2.704
				c1.326,0.156,3.529-0.376,4.907-1.159c3.028-1.743,15.911-0.355,19.961,2.141c1.535,0.95,2.966,2.672,3.185,3.821
				c0.292,1.639,2.339,2.537,9.334,4.062c4.917,1.085,12.121,2.307,15.994,2.725c4.333,0.47,9.553,2.004,13.53,3.967
				c4.834,2.391,7.277,3.017,9.584,2.454c6.473-1.566,10.774-0.031,15.88,5.669c6.003,6.692,12.277,11.046,16.715,11.609
				c4.844,0.605,10.565,6.003,11.327,10.681c0.355,2.161,1.117,3.988,1.702,4.071c3.519,0.438,9.083,5.763,11.432,10.931
				c1.451,3.226,4.573,7.84,6.901,10.263c4.176,4.322,8.008,12.403,7.548,15.963c-0.125,0.992,0.522,1.9,1.462,2.015
				c3.686,0.47,7.151,6.922,11.672,21.726c3.842,12.55,4.531,16.298,3.592,19.806c-0.616,2.38-0.814,6.149-0.418,8.394
				c0.919,5.314-5.982,24.91-10.795,30.632C282.571,219.324,277.174,221.36,272.12,219.731z M244.893,215.785
				c5.919-0.167,14.699,0.543,21.245,1.723c16.819,3.027,19.586,1.086,27.009-18.918c4.208-11.348,4.281-14.428,0.522-23.709
				c-1.389-3.445-2.631-8.311-2.777-10.806c-0.125-2.495-1.106-5.836-2.161-7.423c-1.91-2.871-1.91-2.871-2.203,4.238
				c-0.292,6.588-0.354,6.755-0.918,2.266c-0.334-2.662-0.71-6.107-0.825-7.652c-0.501-6.463-9.563-12.967-10.252-7.392
				c-0.188,1.357-4.239,5.648-9.292,9.845c-4.948,4.082-10.033,8.634-11.286,10.116c-1.263,1.482-2.568,2.35-2.902,1.932
				c-0.334-0.417,4.208-4.928,10.117-10.012c5.909-5.095,11.191-10.44,11.745-11.881c2.14-5.45-0.721-11.212-9.647-19.565
				c-9.146-8.55-10.815-9.427-12.037-6.358c-0.49,1.222-0.689,0.751-0.532-1.242c0.219-2.496-0.689-3.874-4.062-6.17
				c-2.391-1.628-5.408-3.09-6.702-3.257c-2.036-0.25-2.276,0.136-1.629,2.777c0.407,1.691,0.334,3.017-0.157,2.955
				c-0.49-0.063-1.336-2.046-1.857-4.406c-1.953-8.645-9.992-13.395-27.479-16.235c-8.612-1.409-9.438-1.347-8.707,0.564
				c0.449,1.159,0.689,2.798,0.564,3.644c-0.146,0.846-0.805-0.417-1.482-2.788c-1.556-5.606-8.645-12.121-14.074-12.967
				c-3.57-0.563-4.75-0.042-8.373,3.728c-2.328,2.412-5.981,6.765-8.133,9.688c-2.15,2.923-6.264,8.122-9.135,11.578
				c-4.938,5.919-5.157,6.483-4.145,10.189c0.605,2.161,0.981,6.055,0.846,8.655l-0.23,4.74l-0.261-4.834
				c-0.136-2.652-0.971-6.191-1.858-7.851c-1.409-2.704-1.336-3.456,0.585-6.817c1.211-2.078,3.508-5.23,5.146-6.995
				c2.256-2.453,2.684-3.591,1.765-4.761c-0.897-1.169-1.514-1.148-2.516,0.073c-1.128,1.389-1.295,1.347-1.097-0.324
				c0.271-2.213,3.561-3.414,4.385-1.597c1.086,2.391,2.798,1.378,6.254-3.759c3.999-5.909,3.675-7.84-2.046-11.808
				c-1.953-1.357-2.433-2.109-1.222-1.963c1.086,0.136,3.341,1.733,5.011,3.55l3.08,3.32l2.84-2.986
				c1.556-1.639,4.97-3.654,7.59-4.479c4.302-1.357,9.261-4.844,9.553-6.713c0.084-0.396-1.169-0.626-2.735-0.532
				c-1.576,0.094-4.207-0.762-5.856-1.911c-2.902-2.015-2.777-2.046,3.236-0.835c3.445,0.679,6.817,0.898,7.538,0.47
				c2.004-1.211,9.146-8.832,8.738-9.323c-0.961-1.169-13.02-5.857-16.016-6.243c-4.771-0.595-3.862,2.213,1.357,4.249
				c2.276,0.898,4.113,2.067,4.04,2.6c-0.177,1.461-0.846,1.169-9.406-4.009c-5.116-3.08-10.43-5.283-14.908-6.16l-6.975-1.368
				l-2.589,4.844c-1.431,2.663-5.188,9.333-8.373,14.825c-5.429,9.386-5.899,10.816-7.82,23.647
				c-1.796,11.933-2.788,15.211-7.809,25.913c-3.153,6.745-6.035,14.501-6.39,17.237l-0.626,4.98l3.894-2.506
				c2.213-1.44,6.807-2.735,10.785-3.038c3.811-0.303,10.189-0.918,14.198-1.378c3.978-0.459,10.701-0.846,14.93-0.867
				c10.534-0.042,12.664-2.547,9.646-11.39c-0.501-1.44-2.683-3.978-4.865-5.648c-2.182-1.67-3.393-2.965-2.672-2.892
				c0.73,0.073,3.09,1.702,5.24,3.612c3.247,2.84,4.093,3.164,4.823,1.806c1.045-1.942,1.389-10.722,0.564-14.22
				c-0.585-2.453-0.585-2.453,1.013,0.115c1.305,2.109,1.222,4.907-0.501,15.712c-1.984,12.486-1.974,13.165,0.25,13.447
				c1.284,0.157,3.122,1.201,4.082,2.328c1.399,1.608,2.485,1.869,5.168,1.222c1.89-0.459,3.644-0.532,3.926-0.167
				c0.282,0.355-1.086,1.044-3.027,1.514c-1.953,0.47-5.43,1.953-7.727,3.289c-3.549,2.057-4.28,3.164-4.802,7.34
				c-0.345,2.756,0.156,6.65,1.127,8.821c1.587,3.55,2.151,3.884,6.358,3.77c2.558-0.062,6.922-0.992,9.72-2.057
				c8.749-3.331,21.538-15.984,25.192-24.921c2.15-5.241,5.992-8.436,9.542-7.924c2.276,0.324,2.119,0.533-1.169,1.493
				c-2.996,0.877-4.511,2.505-7.225,7.788c-4.583,8.875-15.88,20.306-23.637,23.845c-4.135,1.911-6.265,3.634-6.504,5.294
				c-0.313,2.233-0.438,2.255-1.284,0.25c-1.462-3.435-4.511-3.09-13.812,1.577c-4.729,2.38-10.983,4.646-13.886,5.042
				c-5.627,0.763-6.097,1.295-4.583,5.252c0.981,2.558,13.655,11.411,15.253,10.67c0.501-0.23,1.941-3.55,3.216-7.402
				c1.273-3.853,2.558-6.703,2.84-6.337c0.271,0.365-0.543,3.842-1.827,7.726l-2.35,7.067l3.236,4.177
				c3.038,3.925,3.78,4.249,11.725,5.251c9.47,1.201,17.331-0.772,19.941-5.001c0.824-1.325,1.899-2.359,2.4-2.286
				c0.522,0.062-0.041,1.524-1.231,3.236c-3.728,5.419-20.254,8.696-26.612,5.283c-1.952-1.044-3.33-1.243-3.884-0.564
				c-2.14,2.652-10.795,4.521-16.735,3.603l-6.17-0.94l7.12,0.073c3.926,0.053,8.269-0.386,9.646-0.95
				c6.212-2.558,6.223-2.6,2.526-6.911c-1.932-2.255-4.029-4.197-4.677-4.301c-2.37-0.397-12.633-7.455-14.679-10.117
				c-1.19-1.514-1.974-4.071-1.775-5.689c0.512-4.093-1.545-3.915-3.018,0.271c-1.816,5.063-14.115,17.027-17.268,16.777
				c-0.48-0.042,1.702-2.036,4.792-4.448c6.024-4.677,11.943-12.705,12.476-16.965c0.46-3.612-1.764-11.16-4.343-14.71
				c-1.2-1.629-1.639-2.902-0.981-2.809c2.057,0.25,4.594,4.854,6.076,11.056c1.306,5.461,1.785,6.035,5.617,6.859
				c2.976,0.637,6.358,0.073,11.818-2.004c4.207-1.608,7.977-3.54,8.383-4.291c0.397-0.763-0.146-2.997-1.211-4.98
				c-1.086-1.983-2.057-5.564-2.182-7.977c-0.178-3.862,0.334-4.854,4.583-8.498c3.696-3.174,4.5-4.447,3.498-5.522
				c-3.32-3.519-46.668-1.681-55.553,2.349c-3.884,1.765-8.519,7.476-8.979,11.099c-0.887,7.067,6.932,15.921,14.992,16.934
				c2.37,0.303,4.166,1.117,4.061,1.858c-0.104,0.919-1.681,0.866-5.042-0.156c-2.673-0.814-6.431-1.765-8.352-2.109
				c-3.195-0.574-3.519-0.303-3.978,3.289c-0.637,4.875-3.56,6.619-11.212,6.66c-4.396,0.031-6.578,0.783-9.114,3.111
				c-3.748,3.456-4.302,5.199-2.433,7.601c0.72,0.897,2.255,4.552,3.445,8.112c1.848,5.575,2.725,6.65,6.17,7.726
				c3.487,1.075,3.581,1.211,0.772,0.981c-2.245-0.167-3.341,0.386-3.539,1.796c-0.146,1.127-0.919,2.776-1.712,3.653
				c-1.085,1.201-1.148,0.7-0.261-1.994c0.72-2.161,0.71-3.998,0-4.583c-0.668-0.532-2.14-4.103-3.289-7.924
				c-3.122-10.43-5.575-11.536-14.543-6.535c-8.039,4.479-10.482,8.717-11.004,19.053c-0.25,4.99-0.699,7.382-1.106,5.898
				c-1.128-4.04,0.699-15.837,2.965-19.126c2.725-3.946,13.019-10.398,16.015-10.033c2.067,0.271,8.927-6.462,8.728-8.551
				c-0.052-0.407,3.174-0.668,7.162-0.574c8.582,0.178,10.586-0.835,11.244-5.742c0.25-2.015,1.013-4.332,1.691-5.136
				c0.804-0.981,0.459-3.007-1.044-5.962c-1.253-2.464-2.088-5.982-1.848-7.819c0.731-5.815-4.009-5.022-11.797,1.952
				c-7.611,6.817-9.939,9.751-10.357,13.123c-0.156,1.284-0.95,2.642-1.754,3.007c-1.43,0.647-0.626-2.453,1.817-7.005
				c0.992-1.838-22.279,11.901-26.821,15.838c-2.36,2.046-6.337,8.383-8.77,13.979c-1.127,2.641-0.939,3.789,1.201,6.535
				c1.409,1.827,2.328,3.508,2.036,3.728c-0.292,0.229-1.347-0.773-2.359-2.214s-2.276-2.673-2.819-2.746
				c-1.368-0.177-2.38,8.896-1.587,14.324c0.804,5.481,8.175,14.209,14.804,17.55c5.815,2.934,7.423,3.227,12.267,2.192
				c4.75-1.013,6.483-3.299,7.476-9.865c0.762-5.022,0.772-5.032,1.2-1.044c0.856,7.966,8.186,14.354,17.916,15.587
				c7.35,0.939,13.082-1.807,23.741-11.359c4.375-3.925,10.346-8.049,13.27-9.155l5.293-2.005l-4.187-3.988l-4.187-3.978
				l-9.814,4.739c-5.376,2.621-12.444,5.638-15.691,6.724c-6.525,2.161-7.768,4.375-3.445,6.066
				c1.556,0.615,2.777,1.565,2.704,2.119c-0.167,1.336-6.024-1.796-6.88-3.675c-0.971-2.12,1.535-4.02,8.592-6.536
				c9.939-3.55,23.574-10.711,22.958-12.059c-1.211-2.651-11.161-7.548-18.887-9.291l-8.091-1.817l7.318,0.752
				c4.74,0.491,9.312,1.807,12.936,3.728c4.343,2.307,5.627,2.62,5.773,1.409c0.543-4.302,14.939-7.496,19.168-4.26
				c1.629,1.242,0.783,1.389-4.437,0.772c-5.001-0.605-7.298-0.25-10.273,1.577c-3.508,2.13-3.748,2.62-2.704,5.335
				c0.616,1.649,3.539,5.126,6.483,7.735c5.043,4.469,5.92,4.813,15.535,6.098c9.949,1.326,10.544,1.242,24.367-3.227
				c16.84-5.449,24.587-5.741,33.419-1.252C234.274,215.807,235.726,216.036,244.893,215.785z M261.461,110.058
				c-2.829-0.825-5.889-2.088-6.775-2.809c-1.598-1.294,0.459-0.846,9.354,2.088l3.508,1.148l-1.379-3.769
				c-2.338-6.421-7.287-9.96-16.171-11.589c-8.76-1.618-10.639-3.925-2.35-2.871c2.902,0.366,5.346,0.188,5.408-0.417
				c0.365-2.829-5.22-9.052-9.198-10.242c-8.185-2.464-11.358-4.51-17.216-11.108c-4.249-4.761-6.88-6.776-9.386-7.089
				c-5.095-0.647-11.171,1.378-14.605,4.854c-1.64,1.67-5.69,5.732-9,9.01l-6.013,5.961l6.671,5.408
				c6.327,5.126,7.287,5.502,18.896,7.632c13.029,2.37,19.096,5.23,22.238,10.471c0.991,1.65,3.581,3.393,6.19,4.166
				c9.344,2.746,32.438,24.221,33.242,30.882c0.239,1.858,1.211,2.892,2.943,3.111c4.25,0.532,13.26,11.892,14.042,17.717
				c1.107,8.039,3.08,14.209,4.386,13.614c0.668-0.303,1.085-2.328,0.96-4.521c-0.209-3.394-2.443-11.349-8.384-29.713
				c-0.688-2.13-2.505-4.636-4.04-5.585c-2.578-1.598-2.746-1.524-2.297,0.877c0.282,1.587,0.053,2.276-0.595,1.743
				c-0.585-0.47-1.357-3.456-1.754-6.619C278.739,120.748,272.454,113.242,261.461,110.058z"/>
		</g>
		<g>
			<path fill="none" stroke="#2B3987" stroke-miterlimit="10" d="M253.275,217.665c-0.72,0.072-1.472,0.156-2.233,0.25
				c-13.541,1.702-15.995-0.303-26.999-3.8c-16.965-5.397-16.892-0.011-31.069,3.351c-3.237,0.773-9.543,2.548-16.454,2.746
				c-8.019,0.24-10.482-4.187-17.654-1.765c-7.173,2.412-7.852,3.394-14.439,7.861c-4.354,2.944-15.211,12.038-15.232,12.027
				c-0.303-0.501-8.373,2.642-13.948,5.439c-9.292,4.636-24.159,2.317-28.188-4.385c-1.117-1.869-4.114-3.873-7.935-5.314
				c-4.97-1.879-7.298-3.769-12.08-9.751c-4.833-6.076-5.951-8.383-6.097-12.643l-0.167-5.21l-6.661-0.188
				c-3.654-0.095-10.179-0.262-14.491-0.355c-4.959-0.114-9.302-0.877-11.818-2.088c-4.124-1.963-9.469-7.444-9.208-9.438
				c0.073-0.627,3.612-1.076,7.851-0.992c4.249,0.083,7.778-0.24,7.83-0.721c0.062-0.47-3.821-1.66-8.634-2.651
				c-18.667-3.801-26.957-17.436-24.096-39.589c1.618-12.518,5.742-22.562,15.128-36.823c4.781-7.256,9.887-15.253,11.359-17.79
				c3.038-5.209,10.054-10.774,21.235-16.798c4.218-2.276,9.093-5.502,10.847-7.162C63.891,68.276,76.669,61.74,84.5,59.391
				c3.059-0.918,11.954-3.382,19.763-5.492c7.799-2.098,16.997-5.157,20.442-6.786c3.445-1.628,7.34-2.85,8.666-2.704
				c1.326,0.156,3.529-0.376,4.907-1.159c3.028-1.743,15.911-0.355,19.961,2.141c1.535,0.95,2.966,2.672,3.185,3.821
				c0.292,1.639,2.339,2.537,9.334,4.062c4.917,1.085,12.121,2.307,15.994,2.725c4.333,0.47,9.553,2.004,13.53,3.967
				c4.834,2.391,7.277,3.017,9.584,2.454c6.473-1.566,10.774-0.031,15.88,5.669c6.003,6.692,12.277,11.046,16.715,11.609
				c4.844,0.605,10.565,6.003,11.327,10.681c0.355,2.161,1.117,3.988,1.702,4.071c3.519,0.438,9.083,5.763,11.432,10.931
				c1.451,3.226,4.573,7.84,6.901,10.263c4.176,4.322,8.008,12.403,7.548,15.963c-0.125,0.992,0.522,1.9,1.462,2.015
				c3.686,0.47,7.151,6.922,11.672,21.726c3.842,12.55,4.531,16.298,3.592,19.806c-0.616,2.38-0.814,6.149-0.418,8.394
				c0.919,5.314-5.982,24.91-10.795,30.632c-4.312,5.146-9.709,7.183-14.763,5.554c-0.783-0.24-6.724-3.132-18.636-2.077"/>
			<path fill="none" stroke="#2B3987" stroke-miterlimit="10" d="M107.677,244.788c2.454-0.365,5.815-1.524,7.486-2.589l3.007-1.921
				l-4.855-0.658c-3.518-0.47-6.316-1.932-10.117-5.262l-5.272-4.594l-2.422,2.506c-1.357,1.378-3.853,2.84-5.554,3.257
				c-2.693,0.647-2.902,1.013-1.723,2.861C91.39,243.39,99.346,245.999,107.677,244.788z"/>
			<path fill="none" stroke="#2B3987" stroke-miterlimit="10" d="M121.573,194.539h0.021l7.318,0.752
				c4.74,0.491,9.312,1.807,12.936,3.728c4.343,2.307,5.627,2.62,5.773,1.409c0.543-4.302,14.939-7.496,19.168-4.26
				c1.629,1.242,0.783,1.389-4.437,0.772c-5.001-0.605-7.298-0.25-10.273,1.577c-3.508,2.13-3.748,2.62-2.704,5.335
				c0.616,1.649,3.539,5.126,6.483,7.735c5.043,4.469,5.92,4.813,15.535,6.098c9.949,1.326,10.544,1.242,24.367-3.227
				c16.84-5.449,24.587-5.741,33.419-1.252c5.095,2.6,6.546,2.829,15.713,2.578c5.919-0.167,14.699,0.543,21.245,1.723
				c16.819,3.027,19.586,1.086,27.009-18.918c4.208-11.348,4.281-14.428,0.522-23.709c-1.389-3.445-2.631-8.311-2.777-10.806
				c-0.125-2.495-1.106-5.836-2.161-7.423c-1.91-2.871-1.91-2.871-2.203,4.238c-0.292,6.588-0.354,6.755-0.918,2.266
				c-0.334-2.662-0.71-6.107-0.825-7.652c-0.501-6.463-9.563-12.967-10.252-7.392c-0.188,1.357-4.239,5.648-9.292,9.845
				c-4.948,4.082-10.033,8.634-11.286,10.116c-1.263,1.482-2.568,2.35-2.902,1.932c-0.334-0.417,4.208-4.928,10.117-10.012
				c5.909-5.095,11.191-10.44,11.745-11.881c2.14-5.45-0.721-11.212-9.647-19.565c-9.146-8.55-10.815-9.427-12.037-6.358
				c-0.49,1.222-0.689,0.751-0.532-1.242c0.219-2.496-0.689-3.874-4.062-6.17c-2.391-1.628-5.408-3.09-6.702-3.257
				c-2.036-0.25-2.276,0.136-1.629,2.777c0.407,1.691,0.334,3.017-0.157,2.955c-0.49-0.063-1.336-2.046-1.857-4.406
				c-1.953-8.645-9.992-13.395-27.479-16.235c-8.612-1.409-9.438-1.347-8.707,0.564c0.449,1.159,0.689,2.798,0.564,3.644
				c-0.146,0.846-0.805-0.417-1.482-2.788c-1.556-5.606-8.645-12.121-14.074-12.967c-3.57-0.563-4.75-0.042-8.373,3.728
				c-2.328,2.412-5.981,6.765-8.133,9.688c-2.15,2.923-6.264,8.122-9.135,11.578c-4.938,5.919-5.157,6.483-4.145,10.189
				c0.605,2.161,0.981,6.055,0.846,8.655l-0.23,4.74l-0.261-4.834c-0.136-2.652-0.971-6.191-1.858-7.851
				c-1.409-2.704-1.336-3.456,0.585-6.817c1.211-2.078,3.508-5.23,5.146-6.995c2.256-2.453,2.684-3.591,1.765-4.761
				c-0.897-1.169-1.514-1.148-2.516,0.073c-1.128,1.389-1.295,1.347-1.097-0.324c0.271-2.213,3.561-3.414,4.385-1.597
				c1.086,2.391,2.798,1.378,6.254-3.759c3.999-5.909,3.675-7.84-2.046-11.808c-1.953-1.357-2.433-2.109-1.222-1.963
				c1.086,0.136,3.341,1.733,5.011,3.55l3.08,3.32l2.84-2.986c1.556-1.639,4.97-3.654,7.59-4.479
				c4.302-1.357,9.261-4.844,9.553-6.713c0.084-0.396-1.169-0.626-2.735-0.532c-1.576,0.094-4.207-0.762-5.856-1.911
				c-2.902-2.015-2.777-2.046,3.236-0.835c3.445,0.679,6.817,0.898,7.538,0.47c2.004-1.211,9.146-8.832,8.738-9.323
				c-0.961-1.169-13.02-5.857-16.016-6.243c-4.771-0.595-3.862,2.213,1.357,4.249c2.276,0.898,4.113,2.067,4.04,2.6
				c-0.177,1.461-0.846,1.169-9.406-4.009c-5.116-3.08-10.43-5.283-14.908-6.16l-6.975-1.368l-2.589,4.844
				c-1.431,2.663-5.188,9.333-8.373,14.825c-5.429,9.386-5.899,10.816-7.82,23.647c-1.796,11.933-2.788,15.211-7.809,25.913
				c-3.153,6.745-6.035,14.501-6.39,17.237l-0.626,4.98l3.894-2.506c2.213-1.44,6.807-2.735,10.785-3.038
				c3.811-0.303,10.189-0.918,14.198-1.378c3.978-0.459,10.701-0.846,14.93-0.867c10.534-0.042,12.664-2.547,9.646-11.39
				c-0.501-1.44-2.683-3.978-4.865-5.648c-2.182-1.67-3.393-2.965-2.672-2.892c0.73,0.073,3.09,1.702,5.24,3.612
				c3.247,2.84,4.093,3.164,4.823,1.806c1.045-1.942,1.389-10.722,0.564-14.22c-0.585-2.453-0.585-2.453,1.013,0.115
				c1.305,2.109,1.222,4.907-0.501,15.712c-1.984,12.486-1.974,13.165,0.25,13.447c1.284,0.157,3.122,1.201,4.082,2.328
				c1.399,1.608,2.485,1.869,5.168,1.222c1.89-0.459,3.644-0.532,3.926-0.167c0.282,0.355-1.086,1.044-3.027,1.514
				c-1.953,0.47-5.43,1.953-7.727,3.289c-3.549,2.057-4.28,3.164-4.802,7.34c-0.345,2.756,0.156,6.65,1.127,8.821
				c1.587,3.55,2.151,3.884,6.358,3.77c2.558-0.062,6.922-0.992,9.72-2.057c8.749-3.331,21.538-15.984,25.192-24.921
				c2.15-5.241,5.992-8.436,9.542-7.924c2.276,0.324,2.119,0.533-1.169,1.493c-2.996,0.877-4.511,2.505-7.225,7.788
				c-4.583,8.875-15.88,20.306-23.637,23.845c-4.135,1.911-6.265,3.634-6.504,5.294c-0.313,2.233-0.438,2.255-1.284,0.25
				c-1.462-3.435-4.511-3.09-13.812,1.577c-4.729,2.38-10.983,4.646-13.886,5.042c-5.627,0.763-6.097,1.295-4.583,5.252
				c0.981,2.558,13.655,11.411,15.253,10.67c0.501-0.23,1.941-3.55,3.216-7.402c1.273-3.853,2.558-6.703,2.84-6.337
				c0.271,0.365-0.543,3.842-1.827,7.726l-2.35,7.067l3.236,4.177c3.038,3.925,3.78,4.249,11.725,5.251
				c9.47,1.201,17.331-0.772,19.941-5.001c0.824-1.325,1.899-2.359,2.4-2.286c0.522,0.062-0.041,1.524-1.231,3.236
				c-3.728,5.419-20.254,8.696-26.612,5.283c-1.952-1.044-3.33-1.243-3.884-0.564c-2.14,2.652-10.795,4.521-16.735,3.603l-6.17-0.94
				h-0.011"/>
			<path fill="none" stroke="#2B3987" stroke-miterlimit="10" d="M163.125,205.073l7.12,0.073c3.926,0.053,8.269-0.386,9.646-0.95
				c6.212-2.558,6.223-2.6,2.526-6.911c-1.932-2.255-4.029-4.197-4.677-4.301c-2.37-0.397-12.633-7.455-14.679-10.117
				c-1.19-1.514-1.974-4.071-1.775-5.689c0.512-4.093-1.545-3.915-3.018,0.271c-1.816,5.063-14.115,17.027-17.268,16.777
				c-0.48-0.042,1.702-2.036,4.792-4.448c6.024-4.677,11.943-12.705,12.476-16.965c0.46-3.612-1.764-11.16-4.343-14.71
				c-1.2-1.629-1.639-2.902-0.981-2.809c2.057,0.25,4.594,4.854,6.076,11.056c1.306,5.461,1.785,6.035,5.617,6.859
				c2.976,0.637,6.358,0.073,11.818-2.004c4.207-1.608,7.977-3.54,8.383-4.291c0.397-0.763-0.146-2.997-1.211-4.98
				c-1.086-1.983-2.057-5.564-2.182-7.977c-0.178-3.862,0.334-4.854,4.583-8.498c3.696-3.174,4.5-4.447,3.498-5.522
				c-3.32-3.519-46.668-1.681-55.553,2.349c-3.884,1.765-8.519,7.476-8.979,11.099c-0.887,7.067,6.932,15.921,14.992,16.934
				c2.37,0.303,4.166,1.117,4.061,1.858c-0.104,0.919-1.681,0.866-5.042-0.156c-2.673-0.814-6.431-1.765-8.352-2.109
				c-3.195-0.574-3.519-0.303-3.978,3.289c-0.637,4.875-3.56,6.619-11.212,6.66c-4.396,0.031-6.578,0.783-9.114,3.111
				c-3.748,3.456-4.302,5.199-2.433,7.601c0.72,0.897,2.255,4.552,3.445,8.112c1.848,5.575,2.725,6.65,6.17,7.726
				c3.487,1.075,3.581,1.211,0.772,0.981c-2.245-0.167-3.341,0.386-3.539,1.796c-0.146,1.127-0.919,2.776-1.712,3.653
				c-1.085,1.201-1.148,0.7-0.261-1.994c0.72-2.161,0.71-3.998,0-4.583c-0.668-0.532-2.14-4.103-3.289-7.924
				c-3.122-10.43-5.575-11.536-14.543-6.535c-8.039,4.479-10.482,8.717-11.004,19.053c-0.25,4.99-0.699,7.382-1.106,5.898
				c-1.128-4.04,0.699-15.837,2.965-19.126c2.725-3.946,13.019-10.398,16.015-10.033c2.067,0.271,8.927-6.462,8.728-8.551
				c-0.052-0.407,3.174-0.668,7.162-0.574c8.582,0.178,10.586-0.835,11.244-5.742c0.25-2.015,1.013-4.332,1.691-5.136
				c0.804-0.981,0.459-3.007-1.044-5.962c-1.253-2.464-2.088-5.982-1.848-7.819c0.731-5.815-4.009-5.022-11.797,1.952
				c-7.611,6.817-9.939,9.751-10.357,13.123c-0.156,1.284-0.95,2.642-1.754,3.007c-1.43,0.647-0.626-2.453,1.817-7.005
				c0.992-1.838-22.279,11.901-26.821,15.838c-2.36,2.046-6.337,8.383-8.77,13.979c-1.127,2.641-0.939,3.789,1.201,6.535
				c1.409,1.827,2.328,3.508,2.036,3.728c-0.292,0.229-1.347-0.773-2.359-2.214s-2.276-2.673-2.819-2.746
				c-1.368-0.177-2.38,8.896-1.587,14.324c0.804,5.481,8.175,14.209,14.804,17.55c5.815,2.934,7.423,3.227,12.267,2.192
				c4.75-1.013,6.483-3.299,7.476-9.865c0.762-5.022,0.772-5.032,1.2-1.044c0.856,7.966,8.186,14.354,17.916,15.587
				c7.35,0.939,13.082-1.807,23.741-11.359c4.375-3.925,10.346-8.049,13.27-9.155l5.293-2.005l-4.187-3.988l-4.187-3.978
				l-9.814,4.739c-5.376,2.621-12.444,5.638-15.691,6.724c-6.525,2.161-7.768,4.375-3.445,6.066
				c1.556,0.615,2.777,1.565,2.704,2.119c-0.167,1.336-6.024-1.796-6.88-3.675c-0.971-2.12,1.535-4.02,8.592-6.536
				c9.939-3.55,23.574-10.711,22.958-12.059c-1.211-2.651-11.161-7.548-18.887-9.291l-8.091-1.817"/>
			<path fill="none" stroke="#2B3987" stroke-miterlimit="10" d="M107.52,225.578c-1.994-2.255-5.961-6.014-8.791-8.331
				c-4.844-3.968-8.018-9.375-7.559-12.862c0.094-0.835,0.867,0.438,1.712,2.829c0.898,2.537,3.988,6.463,7.434,9.438
				c5.022,4.332,12.957,13.499,11.37,13.144C111.394,229.733,109.535,227.833,107.52,225.578z"/>
			<path fill="none" stroke="#2B3987" stroke-miterlimit="10" d="M269.834,210.555c4.009-1.055,7.204-5.387,6.933-9.396
				c-0.23-3.246-0.178-3.277,0.804-0.626c1.284,3.497,4.051,3.936,7.799,1.242c2.475-1.785,3.027-3.31,4.04-11.4
				c1.002-7.914,0.856-9.751-0.971-12.101c-2.099-2.693-3.978-3.038-9.782-1.764c-2.392,0.521-2.412,0.511,0.083-1.034
				c3.445-2.161,8.666-1.263,11.13,1.9c1.712,2.213,1.848,4.207,0.845,12.1c-1.367,10.816-2.6,13.082-8.185,15.128
				c-2.203,0.805-5.606,2.788-7.559,4.417c-1.942,1.618-4.511,2.787-5.7,2.6C267.443,211.327,267.537,211.16,269.834,210.555z"/>
			<path fill="none" stroke="#2B3987" stroke-miterlimit="10" d="M252.211,202.537c-0.522-1.942-2.234-4.322-3.79-5.283
				c-1.556-0.96-2.475-2.025-2.057-2.359c0.449-0.345,1.963,0.365,3.352,1.566c2.328,1.983,2.85,2.035,5.836,0.574
				c3.466-1.702,7.924-5.732,9.406-8.52c0.627-1.159,0.825-0.908,0.669,0.824c-0.136,1.535-2.506,4.135-6.129,6.703
				c-4.834,3.466-5.836,4.74-5.533,7.193C254.445,207.308,253.401,206.88,252.211,202.537z"/>
			<path fill="none" stroke="#2B3987" stroke-miterlimit="10" d="M192.91,192.086c0.324-3.612,0.888-4.583,2.809-4.844
				c1.869-0.24,2.359-1.023,2.214-3.477c-0.209-3.08-0.188-3.091,0.824-0.345c0.93,2.495,1.911,2.913,8.78,3.727
				c4.26,0.512,9.918,0.449,12.591-0.136c5.439-1.189,7.079-0.637,2.861,0.981c-1.524,0.574-8.123,0.836-14.68,0.585
				c-6.557-0.261-12.361-0.104-12.894,0.334c-0.553,0.438-1.42,2.359-1.952,4.249C192.629,196.199,192.566,196.074,192.91,192.086z"
				/>
			<path fill="none" stroke="#2B3987" stroke-miterlimit="10" d="M237.396,185.144c0.835-3.696,0.814-5.962-0.073-6.672
				c-0.73-0.595-6.734-1.826-13.385-2.745c-11.098-1.535-14.752-2.735-12.831-4.218c0.407-0.324,2.935,0.312,5.617,1.409
				c2.944,1.2,7.799,2.057,12.226,2.141l7.34,0.146l3.946-10.67c3.319-9.041,4.959-11.745,10.722-17.769
				c3.706-3.915,6.692-6.65,6.599-6.086c-0.095,0.574-1.065,1.962-2.183,3.101c-1.096,1.127-2.266,3.665-2.6,5.617
				c-0.323,1.962-0.71,2.61-0.846,1.451c-0.783-5.836-5.658,0.846-10.534,14.418c-2.099,5.814-3.55,10.899-3.257,11.285
				c0.292,0.387,0.626,0.053,0.73-0.741c0.125-1.064,3.331-0.95,12.413,0.438c10.848,1.66,12.633,1.649,15.797-0.136
				c2.558-1.44,3.915-3.361,4.854-6.827c0.699-2.642,2.339-5.597,3.644-6.557c2.244-1.66,2.266-1.618,0.428,0.991
				c-1.044,1.504-2.442,4.751-3.121,7.225c-0.867,3.133-2.318,5.095-4.865,6.525c-3.236,1.827-4.928,1.848-15.796,0.146
				c-9.365-1.473-12.226-1.566-12.455-0.396c-0.178,0.845-0.512,3.987-0.805,6.994c-0.271,3.007-1.022,5.711-1.67,6.004
				C236.634,190.521,236.655,188.391,237.396,185.144z"/>
			<path fill="none" stroke="#2B3987" stroke-miterlimit="10" d="M282.863,189.257c0.679-3.706,1.974-7.287,2.913-7.966
				c1.389-0.992,1.493-0.804,0.543,1.002c-0.647,1.222-1.953,4.813-2.902,7.966l-1.733,5.742L282.863,189.257z"/>
			<path fill="none" stroke="#2B3987" stroke-miterlimit="10" d="M208.236,131.888c2.924-3.435,3.195-12.215,0.616-19.408
				c-2.171-5.972-1.973-9.072,0.679-10.764c2.203-1.389,2.381-0.501,0.428,2.234c-0.908,1.284-0.699,3.936,0.647,8.634
				c1.075,3.738,1.702,9.01,1.378,11.724c-0.595,5.095-3.277,10.649-5.063,10.419C206.379,134.665,206.963,133.381,208.236,131.888z
				"/>
			<path fill="none" stroke="#2B3987" stroke-miterlimit="10" d="M258.131,136.45c0.156-1.294,0.772-2.286,1.367-2.213
				c0.585,0.083,0.647,1.159,0.146,2.401c-0.501,1.253-1.117,2.245-1.357,2.213C258.036,138.82,257.964,137.745,258.131,136.45z"/>
			<path fill="none" stroke="#2B3987" stroke-miterlimit="10" d="M253.275,217.665c-1.096,0.041-2.233,0.052-3.143-0.063
				c-0.386-0.052,1.42,0.011,3.352,0.053"/>
			<path fill="none" stroke="#2B3987" stroke-miterlimit="10" d="M253.484,217.654c0.053,0,0.094,0,0.136,0"/>
			<path fill="none" stroke="#2B3987" stroke-miterlimit="10" d="M253.62,217.654c2.036,0.042,4.155,0.062,3.853-0.084
				C257.118,217.403,255.447,217.561,253.62,217.654z"/>
			<path fill="none" stroke="#2B3987" stroke-miterlimit="10" d="M53.263,205.053c5.585,0.156,8.07-0.25,8.216-1.367
				c0.125-1.023-1.18-1.775-3.633-2.089c-2.109-0.271-7.496-2.015-11.985-3.894c-7.204-3.018-9.198-3.383-17.174-3.216
				c-8.926,0.198-9.01,0.229-7.225,2.819C25.773,203.591,29.031,204.385,53.263,205.053z"/>
			<path fill="none" stroke="#2B3987" stroke-miterlimit="10" d="M61.771,199.478c2.412-1.868,2.245-4.238-0.313-4.562
				c-6.285-0.804-14.449-4.729-17.206-8.289c-2.359-3.027-3.988-3.926-8.133-4.447c-5.523-0.7-6.014-0.188-4.5,4.666
				c1.106,3.571,1.524,3.843,13.593,8.969C55.789,200.312,59.6,201.169,61.771,199.478z"/>
			<path fill="none" stroke="#2B3987" stroke-miterlimit="10" d="M81.535,114.693l-0.021,0.021l-4.093,4.218
				c-2.276,2.338-5.543,6.034-7.287,8.237c-1.733,2.192-4.792,4.479-6.807,5.084c-2.015,0.595-3.706,1.482-3.769,1.963
				c-0.052,0.47,1.221,2.787,2.86,5.126c2.443,3.529,3.352,4.092,5.241,3.247c3.602-1.598,8.352-7.622,9.636-12.194
				c0.647-2.297,2.088-6.212,3.215-8.687c1.681-3.716,2.631-4.5,5.45-4.468l3.393,0.042l0.292-7.914
				c0.877-23.448,1.524-29.211,3.853-33.899c1.681-3.341,2.004-4.907,1.106-5.356c-0.689-0.345-0.804-1.013-0.24-1.482
				c0.563-0.47,1.514-0.219,2.109,0.563c0.772,0.992,0.355,2.923-1.451,6.619c-3.237,6.64-3.728,10.586-3.529,28.533
				c0.177,15.41,0.939,17.132,5.585,12.466c1.378-1.378,7.183-6.599,12.873-11.599c13.249-11.62,18.448-19.534,20.787-31.624
				c2.046-10.555,4.28-9.396-19.022-9.97c-17.937-0.449-21.131,0.511-27.468,8.174c-3.769,4.552-8.738,7.831-33.732,22.3
				c-9.761,5.648-13.906,9.918-15.744,16.214c-1.545,5.283-5.575,9.584-10.722,11.474c-2.025,0.752-4.928,2.913-6.441,4.823
				c-1.765,2.193-2.683,2.735-2.527,1.483c0.136-1.086,2.078-3.257,4.302-4.813c11.891-8.321,12.779-9.167,14.136-13.552
				c2.151-6.974,6.41-11.108,18.959-18.427c6.369-3.706,14.48-8.457,18.009-10.555c3.539-2.088,9.24-6.608,12.664-10.033
				c8.666-8.666,12.038-9.511,32.918-8.332c17.038,0.971,17.414,0.94,21.005-2.067c10.398-8.687-0.449-17.55-13.792-11.275
				c-3.205,1.503-12.862,4.573-21.444,6.838c-8.592,2.245-17.728,5.021-20.296,6.149c-2.579,1.138-7.809,3.404-11.62,5.043
				c-3.821,1.649-8.039,4.27-9.375,5.846c-1.336,1.566-7.715,5.805-14.157,9.407C34.637,88.906,29.96,93.176,27.548,99.523
				c-0.71,1.869-2.454,4.688-3.863,6.243c-3.122,3.445-10.774,15.754-14.971,24.117c-3.164,6.274-5.418,15.493-6.076,23.804
				c-0.282,3.602-0.271,7.036,0.094,9.98c1.942,15.357,9.354,23.261,23.918,25.526l4.312,0.668l-1.107-4.009
				c-1.054-3.801-1.556-4.135-9.365-6.254c-8.519-2.297-11.328-4.729-10.753-9.281c0.146-1.148-1.002-4.771-2.558-8.07
				c-1.535-3.289-2.652-7.068-2.454-8.394c0.219-1.504,0.731-0.689,1.368,2.202c0.563,2.537,1.597,5.617,2.318,6.849
				c0.72,1.232,1.368,2.392,1.451,2.59c0.052,0.188,1.816-0.365,3.904-1.222c3.424-1.431,3.936-2.297,5.439-9.041
				c0.908-4.104,1.441-7.956,1.159-8.551c-0.689-1.524-6.18-2.078-6.358-0.647c-0.083,0.647-0.751,1.096-1.472,1.013
				c-0.908-0.125-0.793-0.658,0.366-1.754c0.929-0.856,2.881-1.409,4.374-1.221c2.245,0.282,2.903-0.449,4.103-4.552
				c3.247-11.181,8.979-16.422,16.882-15.42c3.049,0.386,3.519,0.021,3.895-2.976c0.532-4.166,1.952-6.995,3.414-6.817
				c0.626,0.083,0.47,1.034-0.407,2.255c-3.101,4.385-2.84,11.651,0.804,22.457c1.952,5.763,3.31,10.67,3.017,10.899
				c-0.825,0.647-7.935-20.024-7.652-22.248c0.313-2.484-4.385-3.215-9.261-1.42c-6.619,2.422-11.891,18.041-8.686,25.735
				c1.681,4.082,1.409,6.191-0.407,3.038c-1.295-2.245-1.482-2.286-2.422-0.543c-1.942,3.623-1.034,11.567,1.733,15.107l2.672,3.435
				l25.495,2.913l25.484,2.912l5.074-3.946c5.063-3.926,5.074-3.946,3.644-7.83c-2.057-5.658-7.037-8.655-16.412-9.866
				c-5.45-0.71-7.266-1.294-5.847-1.868c3.018-1.222,15.285,1.785,18.5,4.541c2.631,2.234,2.913,2.266,5.199,0.47
				c2.245-1.774,2.37-2.453,1.723-10.075c-0.365-4.51-0.595-10.43-0.501-13.175c0.083-2.746-0.115-6.087-0.449-7.444
				c-0.324-1.347-0.23-2.004,0.24-1.462c0.47,0.543,1.587,0.512,2.506-0.073c1.315-0.835,1.357,0.198,0.209,5.116
				c-1.41,6.065-0.835,24.127,0.918,28.762c0.47,1.264,2.172,2.37,4.009,2.6c2.464,0.313,5.533-1.503,13.458-7.924
				c11.714-9.49,12.455-11.265,9.062-21.423c-1.67-4.98-1.786-6.953-0.585-9.751c1.837-4.312,5.377-7.496,7.862-7.068
				c1.336,0.219,1.075,0.584-0.846,1.232c-4.719,1.587-6.567,6.389-5.043,13.123c0.721,3.205,1.336,7.789,1.347,10.179
				c0.021,3.164,0.699,4.636,2.433,5.335c3.247,1.295,4.322-0.396,5.283-8.269c0.542-4.51,2.693-10.68,6.65-19.105
				c5.095-10.858,6.034-13.938,7.329-24.096c1.598-12.799,3.79-18.417,13.029-33.596c2.976-4.865,5.544-10.002,5.732-11.411
				c0.542-4.051-3.487-6.776-11.464-7.757c-9.834-1.222-11.359-0.282-7.997,4.907c1.451,2.255,2.621,4.469,2.558,4.917
				c-0.177,1.284-5.982,9.188-7.819,10.597c-0.919,0.71-2.496,5.325-3.498,10.263c-2.464,12.048-7.768,19.774-21.831,31.812
				c-16.704,14.282-15.932,13.374-13.604,16.067c1.065,1.242,2.318,4.26,2.756,6.692c0.449,2.443,1.607,6.41,2.568,8.822
				l1.754,4.385l-2.161-3.445c-1.211-1.9-2.944-6.41-3.884-10.022c-1.482-5.805-2.245-6.838-6.462-8.926
				c-6.651-3.278-8.488-2.13-11.432,7.12c-3.936,12.33-7.277,15.932-17.415,18.834c-8.446,2.422-14.167,10.586-11.453,16.36
				c0.459,0.981,4.416,2.579,9.312,3.779l8.54,2.099l-8.749-1.472c-10.315-1.733-20.776-6.683-24.921-11.767
				c-1.566-1.973-2.589-3.8-2.224-4.082c0.365-0.282,1.942,1.064,3.508,2.986c1.545,1.921,4.959,4.572,7.569,5.877l4.75,2.381
				l0.543-4.343c0.751-5.795,5.283-11.224,10.649-12.706l4.364-1.201l-4.542-6.525c-4.259-6.149-7.13-14.439-5.45-15.744
				c0.418-0.324,0.971,0.449,1.19,1.723c1.106,5.868,2.004,7.861,3.696,8.081c3.132,0.387,7.82-2.589,11.453-7.287
				c1.932-2.485,5.126-5.648,7.131-7.037l3.612-2.495"/>
			<path fill="none" stroke="#2B3987" stroke-miterlimit="10" d="M110.673,125.425c-1.691-1.242-2.025-1.921-0.877-1.785
				c0.992,0.125,2.746,1.127,3.873,2.224C116.248,128.38,114.317,128.098,110.673,125.425z"/>
			<path fill="none" stroke="#2B3987" stroke-miterlimit="10" d="M65.279,103.877c-0.773-2.088-1.169-5.272-0.856-7.068l0.533-3.268
				l0.407,3.623c0.208,1.994,0.898,4.938,1.514,6.546c0.616,1.607,0.825,3.153,0.459,3.445
				C66.96,107.437,66.042,105.965,65.279,103.877z"/>
			<path fill="none" stroke="#2B3987" stroke-miterlimit="10" d="M106.351,99.805c-0.407-6.65,2.474-13.53,8.624-20.504
				c2.735-3.111,5.188-5.377,5.45-5.043c0.25,0.334-1.055,2.193-2.913,4.124c-5.805,6.014-7.183,8.707-9.051,17.696
				C106.748,104.378,106.654,104.545,106.351,99.805z"/>
			<path fill="none" stroke="#2B3987" stroke-miterlimit="10" d="M66.01,190.875c1.19-1.733,1.869-3.519,1.514-3.978
				c-0.355-0.46-5.888-1.493-12.309-2.308c-10.419-1.315-11.537-1.263-10.388,0.543c1.89,2.965,5.251,5.137,10.409,6.692
				C63.045,194.195,63.755,194.122,66.01,190.875z"/>
			<path fill="none" stroke="#2B3987" stroke-miterlimit="10" d="M71.439,182.763c2.057-2.902-0.741-3.821-12.528-4.113
				c-5.659-0.136-15.138-0.96-21.037-1.837c-11.902-1.754-16.934-4.291-18.489-9.313c-1.159-3.706-2.13-3.904-5.627-1.189
				c-1.89,1.461-2.568,2.912-2.245,4.781c1.106,6.39,2.171,6.703,36.447,10.899C67.837,184.412,70.207,184.496,71.439,182.763z"/>
			<path fill="none" stroke="#2B3987" stroke-miterlimit="10" d="M93.562,165.84c-0.877-0.397-2.422-1.629-3.403-2.746
				c-1.42-1.587-2.213-1.775-3.665-0.835c-1.629,1.033-1.681,1.67-0.376,4.781l1.493,3.581l3.779-2.025
				C94.031,167.176,94.689,166.351,93.562,165.84z"/>
			<path fill="none" stroke="#2B3987" stroke-miterlimit="10" d="M297.208,171.707c-0.209-3.394-2.443-11.349-8.384-29.713
				c-0.688-2.13-2.505-4.636-4.04-5.585c-2.578-1.598-2.746-1.524-2.297,0.877c0.282,1.587,0.053,2.276-0.595,1.743
				c-0.585-0.47-1.357-3.456-1.754-6.619c-1.399-11.662-7.685-19.168-18.678-22.353c-2.829-0.825-5.889-2.088-6.775-2.809
				c-1.598-1.294,0.459-0.846,9.354,2.088l3.508,1.148l-1.379-3.769c-2.338-6.421-7.287-9.96-16.171-11.589
				c-8.76-1.618-10.639-3.925-2.35-2.871c2.902,0.366,5.346,0.188,5.408-0.417c0.365-2.829-5.22-9.052-9.198-10.242
				c-8.185-2.464-11.358-4.51-17.216-11.108c-4.249-4.761-6.88-6.776-9.386-7.089c-5.095-0.647-11.171,1.378-14.605,4.854
				c-1.64,1.67-5.69,5.732-9,9.01l-6.013,5.961l6.671,5.408c6.327,5.126,7.287,5.502,18.896,7.632
				c13.029,2.37,19.096,5.23,22.238,10.471c0.991,1.65,3.581,3.393,6.19,4.166c9.344,2.746,32.438,24.221,33.242,30.882
				c0.239,1.858,1.211,2.892,2.943,3.111c4.25,0.532,13.26,11.892,14.042,17.717c1.107,8.039,3.08,14.209,4.386,13.614
				C296.916,175.925,297.333,173.899,297.208,171.707z"/>
			<path fill="none" stroke="#2B3987" stroke-miterlimit="10" d="M217.393,78.831c-5.638-1.232-10.544-2.652-10.92-3.153
				c-1.19-1.618,20.849,2.777,22.122,4.406c0.679,0.877,0.731,1.441,0.126,1.274C228.125,81.19,223.021,80.052,217.393,78.831z"/>
		</g>
	</g>
</g>
</svg>
