<?xml version="1.0" encoding="utf-8"?>
<!-- Generator: Adobe Illustrator 16.0.0, SVG Export Plug-In . SVG Version: 6.00 Build 0)  -->
<!DOCTYPE svg PUBLIC "-//W3C//DTD SVG 1.1//EN" "http://www.w3.org/Graphics/SVG/1.1/DTD/svg11.dtd">
<svg version="1.1" id="Layer_1" xmlns="http://www.w3.org/2000/svg" xmlns:xlink="http://www.w3.org/1999/xlink" x="0px" y="0px"
	 width="300px" height="300px" viewBox="0 0 300 300" enable-background="new 0 0 300 300" xml:space="preserve">
<g>
	<g>
		<g id="XMLID_5_">
			<g>
				<path fill="#7D7D7D" d="M253.467,255.923v0.888c0,2.216-1.796,4.012-4.011,4.012c-2.216,0-4.012-1.796-4.012-4.012
					L253.467,255.923z"/>
				<path fill="#7D7D7D" d="M253.467,39.85v216.073l-8.022,0.888V39.85c0-4.19-3.402-7.593-7.572-7.593h-43.233V48.36h33.155
					c2.216,0,4.012,1.796,4.012,4.011v207.193c0,2.216-1.796,4.012-4.012,4.012H72.395c-2.215,0-4.011-1.796-4.011-4.012V52.372
					c0-2.215,1.796-4.011,4.011-4.011h33.444V32.257H61.818c-4.181,0-7.583,3.402-7.583,7.593v15.106
					c0-2.215-1.956,3.602-4.171,3.602c-2.215,0-3.851-4.57-3.851-2.355V39.85c0-8.61,7.004-15.615,15.605-15.615h44.021v-6.316
					c0-2.215,1.796-4.011,4.011-4.011h15.844C130.823,5.387,140.202,0,150.239,0c10.047,0,19.426,5.388,24.555,13.909h15.834
					c2.215,0,4.011,1.796,4.011,4.011v6.316h43.233C246.473,24.235,253.467,31.239,253.467,39.85z M225.979,258.417V53.628
					l-31.26-0.08l-0.08,7.703c0,2.215-1.796,4.011-4.011,4.011h-16.403l-1.377-8.021h13.77V21.93h-14.208
					c-1.536,0-2.943-0.878-3.612-2.265c-3.422-7.074-10.705-11.644-18.558-11.644c-7.843,0-15.126,4.57-18.548,11.644
					c-0.668,1.387-2.075,2.265-3.612,2.265h-14.208v35.311h56.962c-2.216,0-4.012,1.796-4.012,4.011s1.796,4.011,4.012,4.011H109.85
					c-2.215,0-4.011-1.796-4.011-4.011l-0.169-7.623l-31.719,0.08v204.708H225.979z"/>
				<path fill="#7D7D7D" d="M245.444,283.721v-26.91c0,2.216,1.796,4.012,4.012,4.012c2.215,0,4.011-1.796,4.011-4.012v26.91
					c0,8.601-6.994,15.604-15.605,15.604H61.818c-8.601,0-15.605-7.004-15.605-15.604V58.178c0,2.215,1.796,4.011,4.011,4.011
					c2.215,0,4.011-1.796,4.011-4.011v225.542c0,4.181,3.402,7.583,7.583,7.583h176.043
					C242.042,291.304,245.444,287.901,245.444,283.721z"/>
				<path fill="#D6D5D5" d="M245.444,256.811v26.91c0,4.181-3.402,7.583-7.583,7.583H61.818c-4.181,0-7.583-3.402-7.583-7.583
					V58.178v-3.223V39.85c0-4.19,3.402-7.593,7.583-7.593h44.021V48.36H72.395c-2.215,0-4.011,1.796-4.011,4.011v207.193
					c0,2.216,1.796,4.012,4.011,4.012h155.399c2.216,0,4.012-1.796,4.012-4.012V52.372c0-2.215-1.796-4.011-4.012-4.011h-33.155
					V32.257h43.233c4.17,0,7.572,3.402,7.572,7.593V256.811z"/>
				<path fill="#70C7B3" d="M202.512,97.56c2.225,0,4.021,1.796,4.021,4.011c0,2.215-1.796,4.011-4.021,4.011h-42.255
					c-2.216,0-4.012-1.796-4.012-4.011c0-2.215,1.796-4.011,4.012-4.011H202.512z"/>
				<path fill="#70C7B3" d="M202.512,156.128c2.225,0,4.021,1.806,4.021,4.021s-1.796,4.012-4.021,4.012h-19.257
					c-2.215,0-4.011-1.797-4.011-4.012s1.796-4.021,4.011-4.021H202.512z"/>
				<path fill="#70C7B3" d="M202.512,214.706c2.225,0,4.021,1.796,4.021,4.011s-1.796,4.011-4.021,4.011h-57.771
					c-2.215,0-4.011-1.796-4.011-4.011s1.796-4.011,4.011-4.011H202.512z"/>
				<path fill="#D6D5D5" d="M186.617,21.93v35.311h-13.77h-2.015h-56.962V21.93h14.208c1.537,0,2.943-0.878,3.612-2.265
					c3.422-7.074,10.706-11.644,18.548-11.644c7.853,0,15.136,4.57,18.558,11.644c0.669,1.387,2.076,2.265,3.612,2.265H186.617z
					 M157.912,24.395c0-4.33-3.502-7.833-7.823-7.833c-4.32,0-7.822,3.502-7.822,7.833c0,4.32,3.502,7.822,7.822,7.822
					C154.41,32.217,157.912,28.715,157.912,24.395z"/>
				<path fill="#70C7B3" d="M171.491,156.128c2.215,0,4.011,1.806,4.011,4.021s-1.796,4.012-4.011,4.012h-26.75
					c-2.215,0-4.011-1.797-4.011-4.012s1.796-4.021,4.011-4.021H171.491z"/>
				<path fill="#7D7D7D" d="M172.848,57.241l1.377,8.021h-3.392c-2.216,0-4.012-1.796-4.012-4.011s1.796-4.011,4.012-4.011H172.848z
					"/>
				<path fill="#7D7D7D" d="M150.089,16.562c4.321,0,7.823,3.502,7.823,7.833c0,4.32-3.502,7.822-7.823,7.822
					c-4.32,0-7.822-3.502-7.822-7.822C142.267,20.064,145.769,16.562,150.089,16.562z"/>
				<path fill="#70C7B3" d="M149.561,97.56c2.215,0,4.011,1.796,4.011,4.011c0,2.215-1.796,4.011-4.011,4.011h-4.819
					c-2.215,0-4.011-1.796-4.011-4.011c0-2.215,1.796-4.011,4.011-4.011H149.561z"/>
				<path fill="#70C7B3" d="M130.773,200.158v37.117c0,2.225-1.796,4.021-4.011,4.021H89.646c-2.215,0-4.011-1.796-4.011-4.021
					v-37.117c0-2.215,1.796-4.011,4.011-4.011h37.116C128.977,196.147,130.773,197.943,130.773,200.158z M122.751,233.264V204.17
					H93.657v29.094H122.751z"/>
				<path fill="#70C7B3" d="M130.773,141.581v37.126c0,2.215-1.796,4.011-4.011,4.011H89.646c-2.215,0-4.011-1.796-4.011-4.011
					v-37.126c0-2.215,1.796-4.011,4.011-4.011h37.116C128.977,137.57,130.773,139.366,130.773,141.581z M122.751,174.686v-29.084
					H93.657v29.084H122.751z"/>
				<path fill="#70C7B3" d="M130.773,83.013v37.116c0,2.215-1.796,4.011-4.011,4.011H89.646c-2.215,0-4.011-1.796-4.011-4.011
					V83.013c0-2.215,1.796-4.021,4.011-4.021h37.116C128.977,78.992,130.773,80.797,130.773,83.013z M122.751,116.118V87.023h-7.394
					H93.657v29.094h13.779H122.751z"/>
				<path fill="#2C3888" d="M116.994,89.229c2.015,0.898,2.923,3.272,2.015,5.298l-7.912,17.69
					c-0.579,1.287-1.796,2.185-3.203,2.345c-0.15,0.02-0.31,0.03-0.459,0.03c-1.247,0-2.425-0.579-3.193-1.586l-7.443-9.778
					c-1.347-1.756-1.008-4.28,0.758-5.618c1.766-1.347,4.28-1.007,5.618,0.758l3.362,4.4l5.148-11.524
					c0.668-1.487,2.135-2.365,3.671-2.365C115.906,88.879,116.455,88.989,116.994,89.229z"/>
				<path fill="#7D7D7D" d="M54.235,54.956v3.223c0,2.215-1.796,4.011-4.011,4.011c-2.215,0-4.011-1.796-4.011-4.011v-1.976
					c0-2.215,1.636,2.355,3.851,2.355C52.28,58.558,54.235,52.741,54.235,54.956z"/>
			</g>
			<g>
			</g>
		</g>
	</g>
</g>
<path fill="#2B3888" d="M116.991,147.639c-2.026-0.908-4.4,0-5.308,2.016l-5.148,11.522l-3.364-4.397
	c-1.338-1.767-3.851-2.105-5.616-0.758c-1.767,1.334-2.105,3.86-0.759,5.616l7.443,9.777c0.769,1.008,1.947,1.587,3.193,1.587
	c0.148,0,0.308-0.011,0.458-0.031c1.408-0.159,2.625-1.058,3.204-2.344l7.911-17.689
	C119.914,150.911,119.006,148.537,116.991,147.639z"/>
</svg>
