<?xml version="1.0" encoding="utf-8"?>
<!-- Generator: Adobe Illustrator 16.0.0, SVG Export Plug-In . SVG Version: 6.00 Build 0)  -->
<!DOCTYPE svg PUBLIC "-//W3C//DTD SVG 1.1//EN" "http://www.w3.org/Graphics/SVG/1.1/DTD/svg11.dtd">
<svg version="1.1" id="Layer_1" xmlns="http://www.w3.org/2000/svg" xmlns:xlink="http://www.w3.org/1999/xlink" x="0px" y="0px"
	 width="300px" height="300px" viewBox="0 0 300 300" enable-background="new 0 0 300 300" xml:space="preserve">
<g>
	<path fill="#484848" d="M192.781,137.197v-3.231C192.781,133.965,192.738,135.286,192.781,137.197z"/>
	<path fill="#484848" d="M253.945,44.393H4.877c-2.395,0-4.334,1.939-4.334,4.333v169.323c0,2.393,1.939,4.332,4.334,4.332h95.639
		v1.861v3.369c-0.095,4.227-0.583,11.234-2.746,13.793c-3.177,3.762-9.823,9.031-9.823,9.031s-1.226,2.07,0.687,2.559
		c1.914,0.49,11.882,0.303,11.882,0.303h57.933c0,0,9.971,0.188,11.885-0.303c1.912-0.488,0.686-2.559,0.686-2.559
		s-6.646-5.27-9.824-9.031c-2.158-2.559-2.65-9.566-2.746-13.793v-5.23h95.496c2.393,0,4.332-1.939,4.332-4.332V48.726
		C258.277,46.333,256.338,44.393,253.945,44.393z"/>
	<path fill="#BCBEC0" d="M160.219,242.299c2.924,3.465,8.549,8.041,9.781,9.029c0.045,0.113,0.084,0.236,0.098,0.33
		c-0.02,0.006-0.045,0.016-0.074,0.023c-0.352,0.088-1.771,0.297-7.396,0.297c-0.002,0-0.002,0-0.002,0
		c-2.248,0-4.133-0.037-4.152-0.037h-57.956c-0.042,0-1.926,0.037-4.175,0.037c-5.626,0-7.047-0.209-7.398-0.297
		c-0.029-0.008-0.054-0.018-0.074-0.023c0.016-0.092,0.054-0.215,0.102-0.332c1.232-0.988,6.852-5.562,9.777-9.027
		c2.333-2.758,2.957-9.494,3.07-14.656v-5.203h55.333v5.172C157.262,232.805,157.889,239.539,160.219,242.299z"/>
	<path fill="#BCBEC0" d="M253.945,221.08H4.877c-1.674,0-3.034-1.361-3.034-3.031v-18.494H256.98v18.494
		C256.98,219.719,255.619,221.08,253.945,221.08z"/>
	<circle fill="#484848" cx="129.412" cy="210.391" r="5.707"/>
	<path fill="#484848" d="M129.412,214.795c-2.431,0-4.406-1.975-4.406-4.404s1.976-4.406,4.406-4.406
		c2.429,0,4.405,1.977,4.405,4.406S131.841,214.795,129.412,214.795z"/>
	<path fill="#BCBEC0" d="M4.877,45.693h249.068c1.674,0,3.035,1.362,3.035,3.033v149.528H1.844V48.726
		C1.844,47.055,3.204,45.693,4.877,45.693z"/>
	<g>
		<rect x="9.645" y="53.205" fill="#484848" width="238.955" height="136.383"/>
		<rect x="9.645" y="53.205" fill="#484848" width="238.955" height="136.383"/>
	</g>
	<g>
		<rect x="10.944" y="54.505" fill="#FFFFFF" width="236.354" height="133.782"/>
	</g>
</g>
<g>
	<g id="Layer_1_2_">
		<g>
			<g>
				<g>
					<path fill="#70C7B3" d="M129.493,86.305c-21.127,0-38.255,4.798-38.255,10.715v8.79c0,5.922,17.127,10.714,38.255,10.714
						c21.127,0,38.253-4.795,38.253-10.714v-8.79C167.746,91.104,150.62,86.305,129.493,86.305z"/>
				</g>
			</g>
			<g>
				<g>
					<path fill="#3BC1CE" d="M129.493,121.649c-20.17,0-36.802-4.375-38.255-9.922c-0.069,0.264,0,14.519,0,14.519
						c0,5.918,17.127,10.715,38.255,10.715c21.127,0,38.253-4.797,38.253-10.715c0,0,0.043-14.255-0.025-14.519
						C166.266,117.274,149.662,121.649,129.493,121.649z"/>
				</g>
			</g>
			<path fill="#2C3888" d="M167.711,132.411c-1.453,5.545-18.048,9.924-38.218,9.924s-36.806-4.378-38.259-9.924l0.004,14.52
				c0,5.919,17.127,10.714,38.255,10.714c21.127,0,38.253-4.797,38.253-10.714L167.711,132.411z"/>
		</g>
	</g>
</g>
<g id="iPad">
	<g>
		<path fill="#484848" d="M153.396,146.581v101.585c0,2.992,2.426,5.42,5.42,5.42h135.223c2.99,0,5.418-2.428,5.418-5.42V146.581
			c0-2.992-2.428-5.417-5.418-5.417H158.816C155.822,141.164,153.396,143.588,153.396,146.581z"/>
		<path fill="#BCBEC0" d="M294.039,142.517c2.238,0,4.062,1.823,4.062,4.063v101.585c0,2.242-1.824,4.066-4.062,4.066H158.816
			c-2.242,0-4.066-1.824-4.066-4.066V146.581c0-2.24,1.824-4.063,4.066-4.063H294.039z"/>
		<rect x="165.361" y="152.564" fill="#484848" width="120.551" height="89.621"/>
		<rect x="166.715" y="153.918" fill="#FFFFFF" width="117.842" height="86.912"/>
	</g>
	<path fill="#484848" d="M288.732,197.373c0,1.887,1.529,3.416,3.414,3.416c1.887,0,3.416-1.529,3.416-3.416
		c0-1.883-1.529-3.41-3.416-3.41C290.262,193.963,288.732,195.49,288.732,197.373z M294.209,197.373
		c0,1.137-0.926,2.061-2.062,2.061c-1.135,0-2.059-0.924-2.059-2.061c0-1.135,0.924-2.059,2.059-2.059
		C293.283,195.314,294.209,196.238,294.209,197.373z"/>
	<circle fill="#484848" cx="159.52" cy="197.373" r="0.988"/>
</g>
<g id="iPhone">
	<path fill="#484848" d="M43.738,241.314c-2.409,0-4.362,1.955-4.362,4.361c0,2.412,1.953,4.363,4.362,4.363
		s4.363-1.951,4.363-4.363C48.101,243.27,46.147,241.314,43.738,241.314z M43.738,248.572c-1.597,0-2.895-1.301-2.895-2.896
		c0-1.594,1.298-2.895,2.895-2.895c1.596,0,2.894,1.301,2.894,2.895C46.632,247.271,45.334,248.572,43.738,248.572z"/>
	<path fill="#484848" d="M62.002,156.393H59.34c-0.073-0.35-0.38-0.611-0.75-0.611h-6.543c-0.37,0-0.678,0.262-0.75,0.611H25.473
		c-2.703,0-4.891,2.193-4.891,4.891v9.152h-0.025c-0.35,0-0.638,0.221-0.638,0.498v2.896c0,0.279,0.288,0.5,0.638,0.5h0.025v5.18
		h-0.216c-0.246,0-0.446,0.156-0.446,0.35v2.023c0,0.193,0.2,0.348,0.446,0.348h0.216v5.443h-0.216c-0.246,0-0.446,0.156-0.446,0.35
		v2.021c0,0.193,0.2,0.352,0.446,0.352h0.216v58.297c0,2.701,2.188,4.893,4.891,4.893h36.529c2.703,0,4.892-2.191,4.892-4.893
		v-87.41C66.894,158.586,64.705,156.393,62.002,156.393z"/>
	<path fill="#BCBEC0" d="M65.426,248.693c0,1.887-1.535,3.424-3.424,3.424H25.473c-1.888,0-3.424-1.537-3.424-3.424v-87.41
		c0-1.887,1.536-3.424,3.424-3.424h36.529c1.89,0,3.424,1.537,3.424,3.424V248.693z"/>
	<g>
		<rect x="24.413" y="170.254" fill="#484848" width="38.651" height="68.084"/>
	</g>
	<g>
		<rect x="25.882" y="171.721" fill="#FFFFFF" width="35.713" height="65.15"/>
	</g>
	<circle fill="#484848" cx="43.738" cy="162.193" r="0.906"/>
	<circle fill="#484848" cx="37.037" cy="165.973" r="0.664"/>
	<path fill="#484848" d="M40.661,166.625h6.155c0.399,0,0.723-0.291,0.723-0.652c0-0.359-0.324-0.652-0.723-0.652h-6.155
		c-0.402,0-0.725,0.293-0.725,0.652C39.937,166.334,40.259,166.625,40.661,166.625z"/>
</g>
<g>
	<g id="Layer_1_14_">
		<g>
			<g>
				<g>
					<path fill="#70C7B3" d="M226.139,179.969c-10.309,0-18.666,2.342-18.666,5.23v4.287c0,2.891,8.357,5.229,18.666,5.229
						c10.307,0,18.662-2.338,18.662-5.229v-4.287C244.801,182.311,236.445,179.969,226.139,179.969z"/>
				</g>
			</g>
			<g>
				<g>
					<path fill="#3BC1CE" d="M226.139,197.215c-9.842,0-17.955-2.135-18.666-4.84c-0.031,0.127,0,7.084,0,7.084
						c0,2.885,8.357,5.227,18.666,5.227c10.307,0,18.662-2.342,18.662-5.227c0,0,0.02-6.957-0.012-7.084
						C244.076,195.08,235.977,197.215,226.139,197.215z"/>
				</g>
			</g>
			<path fill="#2C3888" d="M244.783,202.467c-0.711,2.705-8.805,4.838-18.645,4.838c-9.842,0-17.959-2.133-18.666-4.838v7.08
				c0,2.891,8.357,5.229,18.666,5.229c10.307,0,18.662-2.34,18.662-5.229L244.783,202.467z"/>
		</g>
	</g>
</g>
<g>
	<g id="Layer_1_1_">
		<g>
			<g>
				<g>
					<path fill="#70C7B3" d="M44.09,193.094c-7.638,0-13.828,1.73-13.828,3.871v3.178c0,2.141,6.19,3.873,13.828,3.873
						c7.633,0,13.823-1.736,13.823-3.873v-3.178C57.913,194.824,51.723,193.094,44.09,193.094z"/>
				</g>
			</g>
			<g>
				<g>
					<path fill="#3BC1CE" d="M44.09,205.865c-7.291,0-13.302-1.58-13.828-3.586c-0.025,0.096,0,5.246,0,5.246
						c0,2.143,6.19,3.875,13.828,3.875c7.633,0,13.823-1.734,13.823-3.875c0,0,0.017-5.15-0.007-5.246
						C57.378,204.285,51.377,205.865,44.09,205.865z"/>
				</g>
			</g>
			<path fill="#2C3888" d="M57.9,209.756c-0.524,2.006-6.522,3.588-13.81,3.588c-7.291,0-13.303-1.582-13.829-3.588l0.001,5.246
				c0,2.141,6.19,3.873,13.828,3.873c7.633,0,13.823-1.732,13.823-3.873L57.9,209.756z"/>
		</g>
	</g>
</g>
</svg>
