<?xml version="1.0" encoding="utf-8"?>
<!-- Generator: Adobe Illustrator 16.0.0, SVG Export Plug-In . SVG Version: 6.00 Build 0)  -->
<!DOCTYPE svg PUBLIC "-//W3C//DTD SVG 1.1//EN" "http://www.w3.org/Graphics/SVG/1.1/DTD/svg11.dtd">
<svg version="1.1" id="Layer_1" xmlns="http://www.w3.org/2000/svg" xmlns:xlink="http://www.w3.org/1999/xlink" x="0px" y="0px"
	 width="300px" height="300px" viewBox="0 0 300 300" enable-background="new 0 0 300 300" xml:space="preserve">
<g>
	<g>
		<path fill="#D6D5D5" d="M243.224,222.7v-43.388h17.761c-1.268-1.262-2.462-2.562-3.55-3.9c-0.892-1.092-1.731-2.203-2.536-3.334
			h-11.675v-24.251c-3.381-10.409-5.599-21.241-8.474-31.637v5.27h-38.479c-0.788,2.402-1.549,4.814-2.282,7.23h40.761v43.388
			h-50.845v-8.425c-0.467,1.564-0.925,3.129-1.41,4.689c-2.021,6.491-4.17,13.07-7.063,19.366V222.7h-50.844v-33.252
			c-1.42-3.182-2.548-6.429-3.495-9.464c-1.81-5.815-3.243-11.711-4.979-17.54v9.634H91.45c-0.654,2.413-1.314,4.826-1.995,7.234
			h23.692h2.966V222.7H69.658c-3.507,4.131-7.716,7.668-12.863,10.008v36.996c3.291,0,5.25,0,8.474,0v-39.772h50.845l-0.035,39.894
			c2.96,0,5.611-0.121,8.51-0.121v-39.772h50.844v39.772c2.934,0,5.639,0,8.474,0v-39.772h50.845v39.772c3.036,0,5.438,0,8.474,0
			v-39.772h46.606c0-2.41,0.002-4.821,0.002-7.231H243.224z M234.75,222.7h-50.845v-43.388h50.845V222.7z"/>
		<path fill="#D6D5D5" d="M183.905,70.839V31.066c-2.703,0-5.771,0-8.474,0v39.772h-50.844V31.066c-2.825,0-5.65,0-8.475,0v39.772
			H65.268V31.066c-3.035,0-5.439,0-8.474,0v39.772H10.187c0,2.41,0,4.821,0,7.233h46.607v43.389H10.187c0,2.41,0,4.82,0,7.23h46.607
			v43.388H10.187c0,2.592-0.001,4.643-0.001,7.234h46.609v17.599c0.118-0.262,0.241-0.525,0.355-0.789
			c1.364-3.178,2.614-6.388,3.739-9.628c1.707-4.913,3.06-9.917,4.38-14.929V128.69h20.875c0.38-0.281,0.762-0.561,1.158-0.827
			c9.025-6.025,21.356-7.694,31.187-1.656c2.171,1.334,4.207,2.785,6.099,4.346v-1.863h43.007c0.696-2.415,1.414-4.828,2.156-7.23
			h-45.164V78.072h50.844v26.971c1.512-3.853,3.161-7.661,4.989-11.411c1.1-2.251,2.247-4.468,3.484-6.625v-8.935h6.13
			c2.174-2.61,4.646-5.042,7.527-7.233H183.905z M116.07,121.46H65.268V78.072h50.816L116.07,121.46z"/>
		<path fill="#7D7E7E" d="M299.484,23.622L0,22.174l0.402,256.028H300L299.484,23.622z M289.832,222.7l-0.002,7.231v39.772h-46.606
			h-8.474h-50.845h-8.474h-50.844h-8.475H65.268h-8.474H10.187v-33.019v-6.754V222.7v-14.417c0.14,0.235,0.142-20.028-0.001-20.221
			v-8.75l0.001-7.234V128.69v-7.23V78.072v-7.233V31.066h46.607h8.474h50.845h8.475h50.844h8.474h50.845h8.474h46.606v39.772v7.233
			v43.389v7.23v49.269c-0.144-0.034-0.141,9.72,0.002,9.748V222.7z"/>
		<path fill="#70C7B3" d="M40.019,230.204c1.72,0,3.533-0.143,5.439-0.448c24.119-3.334,33.646-38.986,39.951-62.586
			c0.974-3.646,1.815-6.794,2.562-9.184c3.266-10.591,10.68-18.988,17.245-19.523c5.555-0.451,9.819,5.565,11.882,9.222
			c3.055,5.327,5.276,13.173,7.423,20.76c4.431,15.655,8.616,30.439,21.275,34.039c3.449,0.938,6.95,0.623,10.128-0.905
			c10.991-5.285,16.821-24.272,25.421-54.813c8.182-29.057,19.373-68.833,36.37-66.692c15.744,2.591,21.163,23.373,26.896,45.372
			c6.844,26.257,14.6,56.012,43.729,61.907c0.354,0.096,1.136,0.274,1.493,0.355c0-3.101-0.002-6.617-0.002-9.748
			c-21.226-5.357-28.17-30.401-34.467-54.553c-6.555-25.154-12.748-48.913-35.704-52.586l-0.164-0.023
			c-18.896-2.528-28.656,17.317-31.866,23.836c-6.86,13.94-12.014,32.239-16.998,49.937c-5.68,20.174-12.75,45.278-20.119,48.825
			c-0.519,0.25-0.841,0.282-1.305,0.156c-6.797-1.936-10.78-16.006-13.979-27.312c-2.287-8.078-4.652-16.435-8.222-22.659
			c-7.671-13.594-17.613-14.903-22.845-14.474c-11.461,0.94-22.25,11.584-26.841,26.476c-0.795,2.541-1.656,5.763-2.653,9.499
			c-4.608,17.246-14.197,53.136-31.016,55.4l-0.172,0.026c-11.951,1.939-17.797-6.557-25.986-20.799
			c-2.25-3.913-4.866-8.29-7.308-11.646c0,6.604,0.001,13.905,0.001,20.513C16.539,219.106,25.2,230.204,40.019,230.204z"/>
		<path fill="#D6D5D5" d="M11.848,222.7h-1.661c0,2.589,0,4.641,0,7.231h9.469C16.704,227.846,14.11,225.338,11.848,222.7z"/>
		<path fill="#D6D5D5" d="M244.32,78.072h45.51c0-2.528,0-4.76,0-7.233h-46.606V31.066c-2.824,0-5.649,0-8.474,0v38.718
			C238.51,72.104,241.651,74.932,244.32,78.072z"/>
		<path fill="#D6D5D5" d="M264.131,128.69h25.699c0-2.66,0-4.671,0-7.23h-27.596C262.857,123.872,263.485,126.285,264.131,128.69z"
			/>
		<path fill="#D6D5D5" d="M147.347,179.312h4.673c0.281-0.661,0.565-1.319,0.832-1.982c0.694-1.739,1.351-3.492,1.978-5.252h-9.881
			c0.45,1.508,0.917,3.012,1.427,4.503C146.689,177.496,147.012,178.405,147.347,179.312z"/>
	</g>
</g>
</svg>
