<svg xmlns="http://www.w3.org/2000/svg" xmlns:xlink="http://www.w3.org/1999/xlink" version="1.1" id="Layer_1" x="0px" y="0px" width="300px" height="300px" viewBox="0 0 300 300" enable-background="new 0 0 300 300" xml:space="preserve">
<g>
	<path d="M237.723 0H62.278C27.938 0 0 27.9 0 62.277v175.438C0 272.1 27.9 300 62.3 300h175.444 c34.34 0 62.277-27.941 62.277-62.285V62.277C300 27.9 272.1 0 237.7 0z M288.607 237.7 c0 28.062-22.827 50.893-50.885 50.893H62.278c-28.059 0-50.886-22.83-50.886-50.893V62.277c0-28.058 22.827-50.885 50.886-50.885 h175.444c28.058 0 50.9 22.8 50.9 50.885V237.715z"/>
	<path d="M239.799 124.908h-64.707V60.201c0-2.099-1.7-3.799-3.798-3.799h-42.588c-2.098 0-3.797 1.7-3.797 3.8 v64.707H60.201c-2.098 0-3.798 1.7-3.798 3.798v42.588c0 2.1 1.7 3.8 3.8 3.798h64.708v64.707c0 2.1 1.7 3.8 3.8 3.8 h42.588c2.098 0 3.798-1.701 3.798-3.799v-64.707h64.707c2.098 0 3.799-1.7 3.799-3.798v-42.588 C243.598 126.6 241.9 124.9 239.8 124.908z"/>
</g>
<style>
	* {
		fill: #4AE8C2;
	}
</style>
</svg>
