<svg xmlns="http://www.w3.org/2000/svg" xmlns:xlink="http://www.w3.org/1999/xlink" version="1.1" x="0px" y="0px" width="300px" height="300px" viewBox="0 0 300 300" enable-background="new 0 0 300 300" xml:space="preserve"><style>.style0{fill:	#4AE8C2;}</style><g><g><rect x="20.1" y="106.9" width="33.3" height="136.9" class="style0"/><rect x="95.8" y="106.9" width="33.3" height="136.9" class="style0"/><rect x="171.5" y="106.9" width="33.3" height="136.9" class="style0"/><rect x="247.2" y="106.9" width="33.3" height="136.9" class="style0"/><path d="M293.946 59.504h-3.204v-0.562c0-2.639-1.573-5-3.933-5.927L152.271 0.4c-1.372-0.538-2.873-0.538-4.245 0 L13.482 53.021c-2.365 0.921-3.932 3.288-3.932 5.927v0.562H6.352c-3.344 0-6.055 2.834-6.055 6.329v20.893 c0 3.5 2.7 6.3 6.1 6.329h287.594c3.341 0 6.055-2.833 6.055-6.329V65.839C300.001 62.3 297.3 59.5 293.9 59.504z " class="style0"/><path d="M293.946 258.862H6.352c-3.344 0-6.055 2.838-6.055 6.329v28.479c0 3.5 2.7 6.3 6.1 6.329h287.594 c3.341 0 6.055-2.834 6.055-6.329v-28.479C300.001 261.7 297.3 258.9 293.9 258.862z" class="style0"/></g></g></svg>