<svg xmlns="http://www.w3.org/2000/svg" xmlns:xlink="http://www.w3.org/1999/xlink" version="1.1" x="0px" y="0px" width="300px" height="300px" viewBox="0 0 300 300" enable-background="new 0 0 300 300" xml:space="preserve"><style>.style0{fill:	#4AE8C2;}</style><g><g><g><path d="M112.036 101.449l-18.261-17.25c2.133-3.866 3.443-8.244 3.443-12.959 c0-14.955-12.111-27.072-27.079-27.072c-14.955 0-27.091 12.111-27.091 27.072c0 15 12.1 27.1 27.1 27.1 c5.276 0 10.159-1.572 14.319-4.179l18.235 17.238C105.45 107.7 108.6 104.4 112 101.449z" class="style0"/><path d="M189.269 99.292l24.26-40.824c2.382 0.7 4.9 1.2 7.5 1.173c14.993 0 27.104-12.118 27.104-27.079 c0-14.955-12.111-27.072-27.104-27.072c-14.955 0-27.065 12.105-27.065 27.072c0 7.4 3 14.1 7.8 19.034l-24.186 40.7 C181.734 94.2 185.7 96.5 189.3 99.292z" class="style0"/><path d="M272.937 133.474c-11.649 0-21.516 7.403-25.345 17.718l-33.702-3.324c0 0.3 0 0.5 0 0.7 c0 4.39-0.486 8.687-1.359 12.828l33.689 3.33c2.046 12.9 13.2 22.8 26.7 22.838c14.955 0 27.066-12.111 27.066-27.066 S287.892 133.5 272.9 133.474z" class="style0"/><path d="M179.926 239.942l-7.533-32.929c-4.254 1.484-8.682 2.545-13.297 3.075l7.547 32.9 c-8.656 4.528-14.631 13.478-14.631 23.923c0 15 12.1 27.1 27.1 27.061c14.955 0 27.066-12.105 27.066-27.061 C206.194 252.3 194.5 240.4 179.9 239.942z" class="style0"/><path d="M91.537 161.688l-41.953 14.051c-4.846-7.391-13.178-12.299-22.663-12.299 c-14.961 0-27.066 12.118-27.066 27.073c0 15 12.1 27.1 27.1 27.091c14.955 0 27.091-12.117 27.091-27.091 c0-0.624-0.137-1.204-0.187-1.815l42.096-14.094C94.025 170.5 92.5 166.2 91.5 161.688z" class="style0"/><path d="M152.037 102.179c25.644 0 46.4 20.8 46.4 46.437c0 25.644-20.793 46.43-46.437 46.4 c-25.645 0-46.437-20.786-46.437-46.43C105.6 123 126.4 102.2 152 102.179z" class="style0"/></g></g></g></svg>