<svg xmlns="http://www.w3.org/2000/svg" xmlns:xlink="http://www.w3.org/1999/xlink" version="1.1" x="0px" y="0px" width="300px" height="300px" viewBox="0 0 300 300" enable-background="new 0 0 300 300" xml:space="preserve"><style>.style0{fill:	#4AE8C2;}</style><g><path d="M149.733 299.456c82.563 0 149.729-67.172 149.729-149.728C299.462 67.2 232.3 0 149.7 0 C67.177 0 0 67.2 0 149.728C0 232.3 67.2 299.5 149.7 299.456z M267.507 123.184c-12.488-7.282-9.367 1.039-9.367 1 s0 0 8.3 7.282c8.327 7.3 14.6 10.4 11.4 20.608c-3.122 10.199-8.326 1.246-18.731 9.6 c-10.411 8.3 12.5 10.4 13.5 22.896c1.039 12.489-12.488 6.246-18.731 18.733c-6.244 12.487-1.039 26.021-4.161 37.5 c-3.121 11.449-29.143 27.06-38.594 32.265s-3.036-11.449 0-22.898c3.037-11.45-7.202-23.937-7.202-44.753 s-6.245-14.57-24.977-14.57s-27.06-10.412-29.143-30.183c-2.083-19.776 15.61-39.546 23.938-45.791 c8.327-6.245 19.777-12.488 31.22-6.245c11.449 6.2 15.6 12.5 28.1 12.489s12.487-4.161 19.776-9.367 c7.282-5.206-10.412-11.45-20.815-10.361c-10.404 1.087-8.327-6.287-21.853-11.492c-13.528-5.206-18.733 5.206-22.9 7.3 c-4.161 2.083-18.73 8.327-20.189 0c-1.451-8.328 7.696-9.366 17.067-9.366c9.366 0 1.039-7.282-2.083-12.488 c-3.122-5.206-9.366-5.206-13.879-9.269c-4.506-4.063 5.552-11.547 15.955-9.062c10.405 2.5 6.2 10 17.7 9 s0-11.45 0-21.532c0-10.083 12.489-9.694 20.816-13.715c8.325-4.021 18.7 17.6 26 26.282c2.412 2.9 5.9 1.6 9.38-1.342 c18.409 21.2 30.7 47.8 34.2 77.072C277.462 138.3 278.4 129.6 267.5 123.184z M149.733 6.1 c5.746 0 11.4 0.4 17 1.039c-2.04 5.679-5.357 9.918-5.357 9.918s-4.16 13.526-13.533 14.6 c-9.372 1.045-20.815 0-26.02 8.327c-5.206 8.327-4.161 22.899-12.488 14.571c-8.327-8.327-1.038-8.965-9.366-17.492 c-8.327-8.528-10.41-8.528-14.571-8.528c-1.228 0-2.619-2.119-3.723-5.217C101.926 12.3 125.1 6.1 149.7 6.073z M62.877 35.399c-0.231 1.5 1.1 3.7 7.5 6.347c12.489 5.2 15.4 15.5 9.6 15.1 c-5.752-0.407-29.125 2.782-7.629 9.025c21.501 6.2 19.7 13.6 10.2 16.685C72.954 85.7 75 72.2 72.9 85.7 c-2.083 13.532-4.179 12.494-10.944 14.577c-6.767 2.083-19.261 12.494-19.261 19.778c0 7.282-4.167 11.4 4.2 17.6 s-2.606 17.664-6.541 9.343c-4.726-9.986-8.03-15.496-13.235-16.54c-5.206-1.039-11.911 7.3 0 15.6 c11.911 8.3 12.5 13.5 12.5 19.776c0 6.2 8.6 6.2 15.2 5.205c6.615-1.038 20.2 16.7 24.9 23.9 c4.652 7.3 13 14.6 24.4 17.692c11.449 3.1 15.6 10.4 9.4 15.609c-6.244 5.206-7.283 17.693-14.571 20.8 c-7.289 3.122-8.327 12.487-12.488 16.655c-2.442 2.441-4.811 5.611-6.791 9.274c-6.213-3.492-12.142-7.436-17.748-11.778 c-0.17-0.923-0.358-1.858-0.443-2.702c-1.038-10.411-2.083-22.898-8.327-28.098c-6.244-5.205-10.41-12.487-12.488-20.815 c-2.078-8.326 3.122-20.814-1.039-29.143c-4.16-8.326-4.16-0.522-12.488-12.226c-8.328-11.705-8.328-11.712-13.532-21.077 c-2.782-5.011-4.659-12.998-5.813-21.411C13.526 90.2 33.9 57.5 62.9 35.399z" class="style0"/></g></svg>